<?xml version="1.0" standalone="no"?><!DOCTYPE svg PUBLIC "-//W3C//DTD SVG 1.1//EN" "http://www.w3.org/Graphics/SVG/1.1/DTD/svg11.dtd"><svg class="icon" width="200px" height="59.21px" viewBox="0 0 3459 1024" version="1.1" xmlns="http://www.w3.org/2000/svg"><path d="M427.243243 645.189189c-5.189189 5.189189-13.837838 5.189189-17.297297 5.189189-13.837838 0-25.945946-8.648649-34.594595-22.486486l-5.189189-5.189189-103.783784-230.054054v-8.648649c0-13.837838 8.648649-17.297297 17.297298-17.297297 5.189189 0 8.648649 0 13.837838 5.189189l126.27027 91.675676c8.648649 5.189189 22.486486 8.648649 31.135135 8.648648s13.837838 0 22.486486-5.189189l591.567568-264.648649C961.72973 77.837838 783.567568 0 588.108108 0 266.378378 0 0 216.216216 0 484.324324c0 147.027027 77.837838 276.756757 200.648649 368.432433 13.837838 5.189189 22.486486 17.297297 22.486486 25.945946 0 5.189189 0 8.648649-5.189189 13.837838-8.648649 34.594595-25.945946 95.135135-25.945946 100.324324 0 5.189189-5.189189 8.648649-5.189189 13.837838 0 13.837838 8.648649 17.297297 17.297297 17.297297 5.189189 0 8.648649 0 13.837838-5.189189l126.27027-74.378379c8.648649-5.189189 22.486486-8.648649 31.135135-8.648648 5.189189 0 13.837838 0 17.297298 5.189189 60.540541 17.297297 126.27027 25.945946 192 25.945946 321.72973 0 588.108108-216.216216 588.108108-484.324324 0-83.027027-25.945946-155.675676-65.72973-224.864865-1.72973-1.72973-679.783784 387.459459-679.783784 387.459459z" fill="#09BB07" /><path d="M1497.945946 91.675676h-57.081081c-8.648649 22.486486-17.297297 39.783784-34.594595 57.081081s-31.135135 31.135135-48.432432 39.783784l-13.837838 65.729729c31.135135-13.837838 60.540541-34.594595 91.675676-65.729729 27.675676-27.675676 48.432432-58.810811 62.27027-96.864865z" fill="#595757" /><path d="M1811.027027 250.810811h34.594595l5.189189-51.891892h-112.432433l31.135136-100.324324h-48.432433C1710.702703 138.378378 1689.945946 190.27027 1664 259.459459l13.837838-138.378378h-39.783784l-8.648649 100.324324h-31.135135l8.648649-126.27027h-43.243243l-13.837838 126.27027h-34.594595l8.648649-100.324324h-39.783784l-8.648649 100.324324h-48.432432l-39.783784 65.72973c-17.297297 22.486486-34.594595 39.783784-51.891892 51.891892l-13.837837 69.189189c17.297297-8.648649 31.135135-22.486486 48.432432-34.594594L1345.72973 588.108108h51.891892l34.594594-276.756757c17.297297-22.486486 31.135135-48.432432 39.783784-69.189189l-5.189189 25.945946h186.810811c-5.189189 13.837838-13.837838 25.945946-17.297298 43.243243H1449.513514l-5.18919 48.432433h204.108108l5.18919-31.135135h34.594594l25.945946-77.837838h48.432433c-5.189189 22.486486-8.648649 43.243243-13.837838 69.189189-8.648649 25.945946-13.837838 48.432432-22.486487 69.189189-5.189189-22.486486-8.648649-39.783784-13.837838-51.891892h-43.243243c5.189189 25.945946 17.297297 65.72973 31.135135 108.972973-17.297297 34.594595-34.594595 69.189189-57.081081 95.135135h-43.243243l25.945946-121.081081c5.189189-22.486486-5.189189-34.594595-31.135135-34.594594h-117.621622c-17.297297 91.675676-43.243243 155.675676-74.378378 198.918919h65.72973c22.486486-51.891892 43.243243-103.783784 57.081081-155.675676H1574.054054l-34.594595 155.675676h69.18919l-1.72973 3.459459h60.54054c8.648649-17.297297 25.945946-43.243243 48.432433-86.486486 13.837838 34.594595 25.945946 65.72973 34.594594 86.486486h57.081082l-69.18919-143.567567c43.243243-58.810811 64-128 72.648649-193.72973z m83.027027 345.945946h51.891892l48.432432-368.432433c13.837838-22.486486 25.945946-51.891892 34.594595-77.837838L2023.783784 207.567568h339.027027l5.189189-57.081082h-148.756757l-5.189189-60.54054h-48.432432l5.189189 57.081081h-143.567568c5.189189-13.837838 8.648649-31.135135 13.837838-43.243243h-57.081081c-5.189189 25.945946-13.837838 48.432432-25.945946 74.378378-13.837838 25.945946-22.486486 43.243243-34.594595 60.540541-13.837838 13.837838-22.486486 25.945946-34.594594 34.594594l-13.837838 77.837838c22.486486-13.837838 39.783784-25.945946 51.891892-39.783784 1.72973 0-32.864865 285.405405-32.864865 285.405406z" fill="#595757" /><path d="M2028.972973 368.432432h283.675676l5.189189-43.243243h-278.486487l-10.378378 43.243243z m300.972973-126.27027h-283.675676l-5.189189 48.432433h278.486487l10.378378-48.432433z m-25.945946 354.594595l13.837838-138.378379c5.189189-22.486486 0-34.594595 0-43.243243-5.189189-8.648649-13.837838-8.648649-25.945946-8.648649h-261.189189l-22.486487 190.270271h295.783784z m-235.243243-141.837838h195.459459c5.189189 0 5.189189 5.189189 5.189189 8.648649l-5.189189 83.027027h-204.108108c0-1.72973 8.648649-91.675676 8.648649-91.675676z m806.054054 133.189189c-39.783784-22.486486-95.135135-57.081081-166.054054-108.972973 60.540541-43.243243 103.783784-83.027027 134.918919-117.621621 8.648649-13.837838 17.297297-22.486486 17.297297-31.135136 5.189189-8.648649 5.189189-17.297297 5.189189-31.135135s-5.189189-17.297297-17.297297-17.297297h-140.108108l8.648648-69.189189h186.810811l13.837838-51.891892h-192l8.648649-77.837838h-60.540541l-13.837838 77.837838h-192l-5.189189 51.891892h192l-8.648649 69.189189h-166.054054l-5.189189 51.891892h313.081081c5.189189 0 8.648649 5.189189 5.18919 5.189189-13.837838 17.297297-31.135135 34.594595-57.081082 51.891892-25.945946 22.486486-48.432432 39.783784-69.189189 57.081081-48.432432-39.783784-77.837838-65.72973-91.675675-77.837838h-69.18919c25.945946 25.945946 65.72973 65.72973 117.621622 112.432433-57.081081 34.594595-131.459459 69.189189-212.756757 103.783783h121.081081c34.594595-13.837838 77.837838-39.783784 131.45946-74.378378 13.837838 8.648649 48.432432 34.594595 100.324324 74.378378l110.702703 1.72973z m368.432432-150.486486l-39.783784-147.027027h-65.729729c8.648649 48.432432 22.486486 100.324324 34.594594 147.027027h70.918919z" fill="#595757" /><path d="M3383.351351 198.918919l13.837838-108.972973h-65.72973l-17.297297 108.972973h-192L3113.513514 242.162162h195.459459l-48.432432 299.243243h-103.783784l17.297297 51.891892h143.567568l57.081081-351.135135h60.54054l8.648649-43.243243h-60.540541z m-418.594594 394.378378h57.081081l57.081081-371.891892c25.945946-34.594595 48.432432-77.837838 60.54054-126.27027h-65.729729c-5.189189 25.945946-17.297297 48.432432-31.135135 74.378379s-25.945946 43.243243-39.783784 60.54054c-13.837838 17.297297-25.945946 31.135135-39.783784 39.783784l-13.837838 83.027027c25.945946-13.837838 43.243243-31.135135 60.540541-43.243243l-44.972973 283.675675zM1506.594595 857.945946l-13.837838-190.27027h-43.243243l-83.027028 190.27027v-190.27027h-39.783783v247.351351h51.891892l77.837837-181.621622 8.648649 181.621622h51.891892L1608.648649 667.675676h-34.594595l-67.459459 190.27027z m249.081081-131.45946h-22.486487c-13.837838 0-25.945946 0-34.594594 5.18919s-17.297297 5.189189-22.486487 13.837838c-5.189189 5.189189-8.648649 8.648649-8.648649 13.837837-5.189189 5.189189-5.189189 13.837838-8.648648 25.945946l-8.648649 69.189189c0 8.648649-5.189189 17.297297-5.189189 22.486487 0 13.837838 5.189189 22.486486 13.837838 25.945946 8.648649 5.189189 22.486486 8.648649 43.243243 8.648649h57.081081l13.837838-34.594595H1712.432432c-8.648649 0-17.297297 0-17.297297-5.189189-5.189189 0-5.189189-5.189189-5.189189-13.837838v-13.837838l5.189189-8.648649h69.189189c13.837838 0 22.486486-5.189189 31.135135-8.648648 5.189189-5.189189 8.648649-17.297297 13.837838-31.135135l5.189189-25.945946v-13.837838c0-13.837838-5.189189-22.486486-13.837837-31.135135h-44.972973v1.729729z m8.648648 48.432433l-5.189189 22.486486c0 5.189189-5.189189 8.648649-5.189189 8.648649-5.189189 0-5.189189 5.189189-8.648649 5.189189h-51.891892l5.18919-31.135135c0-8.648649 5.189189-13.837838 8.648648-17.297297 5.189189-5.189189 8.648649-5.189189 17.297298-5.189189h22.486486c8.648649 0 13.837838 0 17.297297 5.189189 0 0 5.189189 5.189189 5.18919 8.648648v5.18919c-1.72973-1.72973-5.189189-1.72973-5.18919-1.72973z m134.918919-108.972973c-5.189189 5.189189-13.837838 5.189189-17.297297 8.648649-5.189189 5.189189-13.837838 8.648649-17.297297 17.297297-5.189189 8.648649-8.648649 22.486486-8.648649 34.594594l-17.297297 95.135136c-5.189189 17.297297-5.189189 31.135135-5.189189 39.783783 0 17.297297 5.189189 31.135135 13.837837 39.783784 8.648649 8.648649 25.945946 13.837838 48.432433 13.837838h60.54054l13.837838-34.594595h-57.081081c-13.837838 0-22.486486 0-25.945946-5.189189s-8.648649-8.648649-8.648649-17.297297 0-22.486486 5.18919-48.432432l13.837838-65.72973c5.189189-17.297297 5.189189-25.945946 8.648648-31.135135 5.189189-5.189189 5.189189-8.648649 8.648649-8.648649 5.189189 0 8.648649-5.189189 17.297297-5.189189h57.081081l13.837838-39.783784H1920c-3.459459 6.918919-12.108108 6.918919-20.756757 6.918919z m256 60.54054h-48.432432l13.837838-74.378378h-39.783784l-43.243243 259.45946h39.783783l25.945946-152.216217h51.891892c5.189189 0 8.648649 0 8.648649 5.18919s5.189189 5.189189 5.189189 8.648648 0 13.837838-5.189189 31.135135l-17.297297 108.972973h39.783783l17.297298-112.432432c5.189189-17.297297 5.189189-31.135135 5.189189-39.783784 0-13.837838-5.189189-22.486486-13.837838-25.945946-5.189189-3.459459-17.297297-8.648649-39.783784-8.648649z m195.45946 0h-83.027027l5.189189 34.594595h65.72973c8.648649 0 13.837838 0 17.297297 5.189189 5.189189 5.189189 5.189189 5.189189 5.189189 8.648649s0 13.837838-5.189189 25.945946h-48.432433c-17.297297 0-31.135135 0-34.594594 5.189189-8.648649 5.189189-13.837838 8.648649-17.297297 13.837838-5.189189 5.189189-8.648649 13.837838-8.648649 25.945946l-5.189189 13.837838c-5.189189 13.837838-5.189189 22.486486-5.189189 31.135135s0 13.837838 5.189189 17.297297c5.189189 5.189189 8.648649 8.648649 13.837838 8.648649 5.189189 5.189189 13.837838 5.189189 22.486486 5.189189h95.135135l17.297297-117.621622c5.189189-17.297297 5.189189-31.135135 5.18919-34.594594 0-13.837838-5.189189-17.297297-13.837838-25.945946 0-12.108108-13.837838-17.297297-31.135135-17.297298z m-3.45946 152.216217h-51.891892c-8.648649 0-13.837838-5.189189-13.837837-8.648649 0 0 0-8.648649 5.189189-22.486486v-5.18919c0-8.648649 5.189189-13.837838 5.189189-13.837837 5.189189 0 8.648649-5.189189 13.837838-5.18919h51.891892l-10.378379 55.351352z m166.054054-204.108108H2473.513514l-8.648649 51.891891h-22.486487l-8.648648 34.594595h22.486486l-13.837838 74.378378c-5.189189 22.486486-5.189189 34.594595-5.189189 39.783784 0 13.837838 5.189189 22.486486 13.837838 31.135135 8.648649 5.189189 22.486486 8.648649 39.783784 8.648649h22.486486l13.837838-34.594595h-39.783784c-5.189189 0-5.189189 0-8.648648-5.189189 0 0-5.189189-5.189189-5.189189-8.648648s0-17.297297 5.189189-31.135136l12.108108-74.378378h48.432432l5.189189-34.594595h-48.432432l17.297297-51.891891z m382.270271-8.648649c-8.648649 0-13.837838 0-17.297298-5.189189h-112.432432l-43.243243 247.351351h43.243243l13.837838-83.027027h57.081081c13.837838 0 22.486486 0 25.945946-5.189189 5.189189 0 13.837838-5.189189 17.297297-8.648649 5.189189-5.189189 13.837838-13.837838 17.297297-22.486486 5.189189-8.648649 5.189189-17.297297 8.648649-34.594595l5.189189-31.135135c5.189189-17.297297 5.189189-31.135135 5.189189-39.783784 0-8.648649 0-17.297297-5.189189-22.486486-1.72973 10.378378-6.918919 10.378378-15.567567 5.189189z m-20.756757 69.189189l-5.189189 17.297297c-5.189189 13.837838-5.189189 22.486486-8.648649 25.945946s-5.189189 8.648649-8.648649 8.648649c-5.189189 5.189189-5.189189 5.189189-8.648648 5.189189h-60.540541l17.297297-95.135135h48.432433c8.648649 0 17.297297 0 17.297297 5.189189 5.189189 5.189189 5.189189 5.189189 5.189189 8.648649 6.918919 3.459459 3.459459 12.108108 3.45946 24.216216zM3061.621622 726.486486h-83.027027l5.189189 34.594595h65.72973c8.648649 0 13.837838 0 17.297297 5.189189 5.189189 5.189189 5.189189 5.189189 5.189189 8.648649s0 13.837838-5.189189 25.945946h-48.432433c-17.297297 0-31.135135 0-34.594594 5.189189-8.648649 5.189189-13.837838 8.648649-17.297298 13.837838-5.189189 5.189189-8.648649 13.837838-8.648648 25.945946v5.189189c-5.189189 13.837838-5.189189 22.486486-5.189189 31.135135s0 13.837838 5.189189 17.297297 8.648649 8.648649 13.837838 8.648649c5.189189 5.189189 13.837838 5.189189 22.486486 5.189189h95.135135l17.297298-117.621621c5.189189-17.297297 5.189189-31.135135 5.189189-34.594595 0-13.837838-5.189189-17.297297-13.837838-25.945946-6.918919-3.459459-15.567568-8.648649-36.324324-8.648649z m-5.18919 152.216217h-51.891891c-8.648649 0-13.837838-5.189189-13.837838-8.648649 0 0 0-8.648649 5.189189-22.486486v-5.18919c0-8.648649 5.189189-13.837838 5.189189-13.837837 5.189189 0 8.648649-5.189189 13.837838-5.18919h51.891892l-10.378379 55.351352z m197.18919-17.297298h-39.783784c-8.648649 0-17.297297 0-22.486487-5.189189-5.189189 0-5.189189-5.189189-5.189189-13.837838 0-5.189189 0-17.297297 5.189189-25.945946l13.837838-91.675675H3165.405405l-13.837837 91.675675c-5.189189 17.297297-5.189189 25.945946-5.18919 34.594595 0 17.297297 5.189189 25.945946 13.837838 34.594595s22.486486 8.648649 43.243243 8.648648h43.243244l-5.189189 13.837838c0 8.648649-5.189189 17.297297-5.18919 17.297297 0 5.189189-5.189189 8.648649-8.648648 8.648649s-13.837838 5.189189-22.486487 5.189189h-65.72973l5.18919 34.594595h65.729729c17.297297 0 31.135135-5.189189 34.594595-8.648649 8.648649-5.189189 13.837838-8.648649 17.297297-17.297297 5.189189-8.648649 5.189189-17.297297 8.648649-25.945946l31.135135-190.27027h-39.783784l-8.648648 129.729729z" fill="#595757" /></svg>