<?xml version="1.0" standalone="no"?><!DOCTYPE svg PUBLIC "-//W3C//DTD SVG 1.1//EN" "http://www.w3.org/Graphics/SVG/1.1/DTD/svg11.dtd"><svg class="icon" width="200px" height="70.62px" viewBox="0 0 2900 1024" version="1.1" xmlns="http://www.w3.org/2000/svg"><path d="M311.979 806.541l88.037-378.067c-0.761-0.19-1.632-0.304-2.528-0.304-0.004 0-0.007 0-0.007 0-4.837 0.468-9.229 2.077-12.993 4.551-0.438 6.585-4.735 27.757-6.731 37.495-4.346 20.372-4.643 22.72-6.542 32.807l-1.298 1.347c-15.479 0-20.823 0-38.65 0.598l-0.849-1.45q4.494-18.226 8.789-36.453c8.844-34.613 14.301-74.529 15.085-115.594l-2.349 52.423c17.378-2.4 21.571-2.896 40.401-6.793l1.598 1.798-2.847 10.486c3.197-1.897 6.193-3.844 9.488-5.492 5.089-2.509 11.014-4.235 17.269-4.837l33.418-189.665c9.988-41.846 51.536-75.854 93.231-75.854h-274.1c-41.798 0-83.541 34.006-93.231 75.854l-139.172 597.186c-9.687 41.747 16.231 75.702 57.926 75.702h273.952c-41.798 0-67.664-33.956-57.825-75.702zM284.614 492.444c-14.685 7.958-32.15 12.636-50.707 12.636-1.187 0-2.367-0.019-3.543-0.057-16.158 0.003-44.771-2.591-55.159-20.319-3.002-5.474-4.766-11.994-4.766-18.926 0-0.471 0.005-0.948 0.023-1.417l3.645-27.199 1.947-8.339 22.021-98.225s1.148-5.393 1.397-6.293c0.449 0.649 7.991 0.997 50.387 0.649l-0.298 1.249c-3.894 11.535-25.667 98.723-25.667 98.723l-4.193 26.017v4.393c1.347 12.835 9.387 19.575 22.972 19.575 0.231 0.004 0.494 0.006 0.762 0.006 8.121 0 15.568-2.889 21.366-7.693 10.93-8.843 14.177-22.676 18.67-42.051 0 0 20.772-95.729 21.97-100.919 2.896 0.649 11.934 0.997 42.645 0.649-0.226 0.523-0.368 1.127-0.386 1.765-3.807 11.317-26.228 101.903-26.228 101.903l-2.497 9.735c-5.093 18.975-11.035 40.401-34.356 54.13z" fill="#E03333" /><path d="M641.91 806.541l23.12-99.025h-9.986c-8.139 0-14.132 0-18.226-0.499-0.492 0.042-1.063 0.066-1.644 0.066-3.34 0-6.485-0.816-9.251-2.268-2.288-2.046-5.937-4.944-5.883-7.638 1.406-8.843 3.87-16.789 7.295-24.197l42.346-143.538h33.258l-4.993 16.727s2.148-1.697 4.993-3.844l9.488-38.052c-5.941 0-11.934 0.251-21.772 0.75l-0.649-1.249c1.499-6.642 3.197-13.282 4.993-19.974l2.097-9.141c3.247-14.234 6.442-30.812 6.793-35.805 0.298-3.047 1.347-10.635-7.29-10.635-4.827 0.461-9.2 2.060-12.957 4.528-0.477 6.606-4.771 27.78-6.867 37.516-4.293 20.372-4.544 22.72-6.491 32.807l-1.298 1.347c-15.479 0-20.772 0-38.601 0.598l-0.8-1.45q4.445-18.226 8.737-36.453c8.704-34.213 14.069-73.673 14.825-114.255l-2.191 51.086c17.378-2.4 21.625-2.896 40.401-6.793l1.499 1.798-2.747 10.486q4.643-2.896 9.488-5.492c7.283-3.526 15.833-5.604 24.862-5.653-0.562 0.002-0.291-0.001-0.021-0.001 4.444 0 8.643 1.037 12.374 2.879l44.478-191.778c9.986-41.846 51.485-75.854 93.33-75.854h-330.326c-41.695 0-83.39 34.006-93.231 75.854l-44.942 192.155c5.771-2.069 12.429-3.277 19.364-3.308 7.305 0.007 16.289 2.307 20.036 11.846 3.597 8.487 1.249 18.975-3.447 39.598l-2.4 10.486c-4.993 22.921-5.594 27.167-8.289 42.895l-1.798 1.347c-14.98 0-20.275 0-37.851 0.598l-0.7-1.249c1.549-6.642 3.197-13.282 4.694-19.974l2.097-9.189c3.245-14.234 6.491-30.812 6.793-35.805 0.251-2.747 1.099-8.94-4.993-10.336l-87.639 378.114c-9.789 41.747 15.929 75.702 57.874 75.702h329.93c-41.747 0-67.714-33.956-57.877-75.753zM653.044 542.231l-7.14 23.718h-53.333l-5.792 4.993c-2.497 2.4-3.346 1.397-6.59 3.145-5.195 2.809-11.371 4.471-17.925 4.499l-16.727-0.002 6.939-22.82h4.993c0.511 0.051 1.105 0.080 1.705 0.080 2.542 0 4.956-0.526 7.153-1.475 3.348-2.799 5.884-6.656 7.044-11.074l8.619-14.148h38.854l-6.793 13.035h39.049zM513.224 416.639c-1.499 5.594-6.293 24.272-7.741 29.963-1.65 6.793-3.396 13.483-4.993 19.974-3.346 14.279-4.694 19.575-5.546 23.421s-0.949 5.594-2.348 13.035l-0.8 0.649-0.849 0.598h-20.524c-5.546 0-11.185 0.298-19.575 0.649l-0.499-0.649-0.55-0.7c3.21-12.129 8.091-22.761 14.471-32.307-6.33 9.711-4.084-0.256-3.543-10.673 0.608 4.079 2.306-3.513 3.403-10.103s4.993-24.272 5.993-29.963c-0.022-0.307-0.039-0.663-0.039-1.026 0-5.447 3.057-10.177 7.553-12.567 9.517-6.527 23.498-8.027 31.536-3.333 3.102 1.549 5.2 4.699 5.2 8.339 0 1.748-0.484 3.391-1.328 4.784zM520.761 451.997c3.207-17.556 12.154-32.622 24.784-43.54 6.642-5.237 21.612-11.184 37.974-11.184 0.848 0 1.692 0.007 2.531 0.048 14.258-0.002 28.042 3.244 35.932 13.23 4.993 6.59 9.189 17.378 3.894 40.5-3.518 16.724-11.628 31.173-22.933 42.411-5.046 4.431-21.006 11.635-38.65 11.635-0.979 0-1.952-0.021-2.921-0.066-0.256 0.019-0.722 0.019-1.184 0.019-8.259 0-16.179-1.433-23.534-4.061-23.132-9.337-19.338-34.851-16.141-48.986zM602.21 707.521h-43.895c-3.744-0.054-7.341-0.588-10.763-1.547-2.455-0.451-5.095-2.527-6.505-5.327-1.454-1.263-2.528-3.716-2.528-6.427 0-1.085 0.172-2.128 0.492-3.107l12.564-41.675h-21.671l7.14-23.82h21.772l5.742-19.374h-21.625l6.892-22.72h95.229l-6.992 22.771h-38.103l-5.941 19.326h38.953l-7.089 23.47h-38.953l-9.34 31.009c-1.148 3.495 9.239 3.945 12.986 3.945l19.527-2.646-7.841 25.966z" fill="#004889" /><path d="M696.888 554.866l-7.939 26.416c5.405-4.574 11.943-7.988 19.122-9.772l-7.638-16.695h-3.648zM566.355 481.161c4.976-0.485 9.174-3.417 11.417-7.561 5.433-9.522 9.044-21.178 9.794-33.607 2.956-8.217 2.356-19.107-7.029-19.107-11.885 0-16.63 14.63-20.524 32.16-1.511 5.469-2.388 11.754-2.409 18.235 0.007 9.877 7.504 9.877 8.753 9.877zM661.933 672.165c-1.397 4.993-2.047 7.089-1.148 8.339 1.104 1.492 2.854 2.45 4.832 2.45 0.057 0 0.115-0.001 0.17-0.001l4.987-0.499 13.632-58.676h-7.889l-14.683 48.337zM685.952 591.22l-3.346 11.035h6.892l2.545-11.035z" fill="#004889" /><path d="M942.125 481.558c6.082-0.193 11.481-2.977 15.148-7.283 2.905-4.193 5.012-9.471 5.746-15.178-0.219 1.586 1.081-3.41 2.279-8.753 0.8-3.546 1.499-6.642 2.148-9.589 0.849-11.934-3.145-18.927-10.686-18.927-11.934 0-16.576 14.581-20.572 31.71-1.541 5.681-2.446 12.209-2.479 18.944 0.031 9.073 7.423 9.073 8.421 9.073zM736.788 602.103l3.546-10.835h-48.439l-2.545 11.035h40.299c1.078-0.115 2.329-0.181 3.597-0.181s2.519 0.066 3.75 0.193z" fill="#008089" /><path d="M1172.98 133.553h-298.72c-41.846 0-83.541 34.006-93.33 75.854l-44.642 191.708c4.279 2.237 7.444 6.103 8.705 10.753 2.925 6.773 0.579 17.259-4.163 37.885l-2.4 10.486c-4.993 22.921-5.694 27.167-8.24 42.895l-1.849 1.347h-16.079l-8.887 38.154c8.463-6.337 18.625-10.894 29.678-12.909-4.416 1.636 10.029-0.682 24.954-1.044l35.798 1.171-18.276 61.074c-3.025 11.385-8.506 21.232-15.869 29.343 3.993-4.368-0.429-0.881-5.657 0.803-1.055 1.151-6.404 2.78-12.112 3.040-0.517-0.029-5.961 0.119-13.55 0.17h-43.945l-13.632 58.276 17.776-1.697-7.741 26.669h-15.782l-23.12 99.222c-9.988 41.747 16.079 75.702 57.874 75.702h298.618c41.846 0 83.594-33.956 93.33-75.702l139.122-597.338c9.988-41.846-16.179-75.854-57.926-75.854zM959.553 398.218c6.538 2.435 11.694 7.274 14.496 13.413-1.363-3.975-1.013-5.373-0.813-6.819l1.347-1.148c18.026-2.547 23.022-3.247 41.798-6.74l0.598 1.549c-3.443 14.182-6.841 28.365-9.986 42.593-6.939 29.963-9.437 44.942-12.086 60.571l-1.65 1.249c-18.077 0-23.321 0-39.948 0.598l-1.099-1.347c0.547-2.097 1.099-4.245 1.65-6.293-5.731 5.344-13.322 8.756-21.701 9.17 1.037-0.096 0.234-0.074-0.579-0.074-6.697 0-13.063-1.417-18.813-3.97-23.025-8.972-19.28-34.439-16.035-48.37 3.142-17.419 12.038-32.359 24.613-43.131 11.491-10.399 30.315-14.443 38.355-11.297zM753.117 504.78l29.163-119.847 11.535-53.98 1.397-6.593c5.344 0.649 18.377 0.8 50.835 0.399h12.485c25.417 0 47.342 0.399 58.425 15.882 3.71 5.359 5.929 11.999 5.929 19.154 0 0.55-0.019 1.1-0.039 1.65-0.062 5.947-0.858 11.76-2.306 17.305-4.281 20.218-16.935 37.979-34.245 49.146-16.379 12.323-44.096 12.323-68.51 12.323h-2.547c-2.246 1.434-3.999 3.461-5.057 5.865 1.162-1.671-4.481 21.899-4.481 21.899s-6.642 32.007-7.792 37.354c-4.993-0.449-16.48-0.449-44.942 0zM763.754 642.599c-0.91 4.933-3.526 9.141-7.196 12.076-3.021 2.844-8.743 5.259-15.034 5.259-0.576 0-1.148-0.020-1.716-0.061l-18.297 0.753v16.627c0 4.743 0.997 4.245 1.747 4.993 0.87 0.855 2.006 1.445 3.274 1.635l5.017-0.187 17.628-1.047-7.242 24.218h-20.275c-14.182 0-24.669-0.298-28.163-3.099s-3.844-4.993-3.794-9.488l1.298-64.916h32.258l-0.449 13.234h7.792c0.292 0.027 0.636 0.045 0.979 0.045 1.654 0 3.225-0.368 4.635-1.021 1.199-1.011 2.080-2.478 2.358-4.148l2.967-9.557h25.417l-3.047 14.683zM876.907 706.971h-34.657l2.348-7.741h-70.411l7.089-23.022h7.14l36.953-122.346 7.392-24.718h35.355l-3.694 12.485c8.485-5.959 18.718-10.018 29.791-11.338-4.125 0.506 32.329-0.447 44.562-0.693h37.753l0.399 14.082c0 2.348 1.798 3.447 6.142 3.447h7.641l-7.043 23.221h-20.322c-17.628 1.298-24.319-6.293-23.921-14.98l-0.349-13.783-3.794 12.333h-12.135l-36.405 120.497h9.986l-7.539 24.966h-9.986l-2.297 7.741zM1033.161 599.959h-37.851l-5.941 18.827h37.951l-6.242 20.723h-41.098l-7.29 8.687h16.679l4.045 26.065c0.081 2.086 0.614 4.031 1.5 5.765 2.002 0.492 4.564 1.019 7.246 1.019 0.454 0 0.906-0.007 1.351-0.045l4.933 0.002-7.69 25.366h-12.835c-1.996 0-4.993 0-8.94-0.349-4.471-0.887-8.382-2.854-11.584-5.628-1.255-0.033-3.838-3.531-4.398-7.673l-3.892-25.348-18.677 25.567c-5.753 8.663-15.469 14.297-26.503 14.297-0.339 0-0.678-0.003-1.013-0.019l-26.117 0.001 6.793-22.621h9.986c2.822-0.098 5.43-0.934 7.663-2.317 2.403-0.835 4.587-2.899 5.775-5.515l26.56-37.211h-35.955l6.142-20.723h41.098l5.842-18.827h-40.548l6.943-23.321h112.958l-7.089 23.371zM1056.977 528.299l-1.598 1.798h0.304l-14.63 24.966c-4.949 9.012-14.377 15.022-25.21 15.022-0.546 0-1.091-0.019-1.632-0.045l-23.196-0.347 6.793-22.522h4.494c0.288 0.022 0.626 0.037 0.966 0.037 1.628 0 3.185-0.307 4.615-0.867 1.453-0.682 2.65-1.908 3.309-3.421l7.741-12.227c11.535-17.579 14.479-24.966 26.517-44.942-2.097-22.371-3.145-29.613-4.993-44.294-0.997-8.737-2.4-17.727-3.443-26.565-1.541-16.854-4.533-32.308-8.906-47.171l4.957 19.904v-1.996l1.45-1.249c17.927-2.246 18.427-2.896 37.851-6.593l1.598 1.598 2.597 49.937v2.847c10.389-23.070 9.988-16.727 22.621-46.042v0.251c-0.005-0.127-0.019-0.274-0.019-0.423s0.003-0.295 0.019-0.447l1.298-1.228c17.028-2.246 20.423-2.896 38.899-6.593l1.45 1.598s-73.855 127.888-83.843 149.010z" fill="#008089" /><path d="M747.921 567.699l3.945-13.035h-51.335l-4.993 21.872c8.434-5.143 18.508-8.438 29.296-9.079-2.879 0.24 23.088 0.24 23.088 0.24zM854.439 407.354c11.063-5.875 18.908-16.548 20.786-29.171 2.484-10.828-1.659-20.964-11.695-24.86l-26.268-2.047-4.993-0.499v2.197l-0.298 2.747-12.386 53.633-0.499 2.695h6.74c1.343 0.102 2.908 0.157 4.485 0.157 8.698 0 16.989-1.726 24.557-4.859zM824.475 674.711h28.163l8.139-27.066h-28.514zM860.979 553.868l-9.34 30.812c15.004-6.977 32.433-11.746 50.768-13.36-28.657 5.71-21.885 4.899-14.934 4.835l1.617-22.236h-28.114zM837.26 632.167c14.75-7.727 31.956-13.092 50.177-15.076-27.905 6.539-19.168 5.492-19.168 5.492l6.892-22.421h-28.163z" fill="#008089" /><path d="M1347.105 293.45h127.54l4.145-23.321h43.495l-4.145 23.321h129.233l-40.65 229.306c-1.383 7.867-4.347 14.86-8.57 20.909-0.918 2.032-7.187 7.845-14.742 11.364 1.983-0.458-4.121 1.706-10.73 1.706-0.427 0-0.853-0.006-1.278-0.025l-99.963 0.001-4.993 29.313h-43.495l4.993-29.313h-127.487l46.693-263.362zM1352.104 514.519h83.344l31.757-179.321h-83.292l-31.757 179.321zM1478.941 514.519h71.708c0.78 0.102 1.677 0.159 2.59 0.159 3.344 0 6.509-0.775 9.319-2.162 2.011-2.484 3.343-5.766 3.447-9.354l29.935-167.967h-84.892l-31.757 179.321zM1790.141 406.857h61.621l6.642-37.554h-61.621l6.193-34.955h176.924l-6.193 34.955h-71.457l-6.642 37.554h70.21l-6.142 34.606h-70.212l-8.839 49.935h24.966l14.531-21.722h27.017l-2.646 21.722h12.532l-6.193 34.657h-181.618l6.142-34.606h61.621l8.839-49.935h-61.82l6.142-34.606zM1750.794 274.371h302.916l-47.639 268.855c-1.751 10.227-5.095 19.375-9.797 27.655 0.822-1.397-5.477 5.535-13.297 10.189q-0.526 1.953-32.883 1.953h-253.923l54.926-308.755zM1747.796 546.977h201.093c0.434 0.057 0.94 0.090 1.453 0.090 2.941 0 5.632-1.075 7.703-2.851 2.117-3.049 3.455-6.812 3.613-10.878l39.566-222.661h-211.53l-41.846 236.247zM2132.853 365.456h125.641l-6.74 38.003h-53.633l-6.841 38.551h54.53l-6.542 36.852h-54.53l-9.589 54.13c-1.099 6.142-1.099 9.988 0 11.237s4.045 2.047 8.887 2.047h32.209l-6.542 37.053h-54.931c-5.399-0.074-10.559-1.008-15.38-2.666-4.455-1.309-8.665-5.083-10.8-9.965-0.681-2.14-1.456-6.176-1.456-10.391 0-3.125 0.426-6.149 1.223-9.023l12.726-71.823h-31.061l6.642-37.501h31.061l6.841-38.551h-28.464l6.74-38.003zM2209.858 294.997h61.17l-6.491 36.502h-70.462l-5.842 8.090c-5.013 6.877-11.801 12.191-19.697 15.298 5.165-2.167-2.178-0.867-12.964-0.867h-22.573l6.342-35.654h6.793c0.627 0.074 1.362 0.112 2.096 0.112 3.546 0 6.871-0.95 9.733-2.609 4-4.899 6.773-11.079 7.604-17.858l11.082-27.531h41.947l-8.74 24.267zM2290.055 273.973h164.79l-18.476 104.416c-2.635 19.088-8.065 36.358-15.91 52.224 3.397-9.38-2.955-3.189-10.741 0.432 0.269 1.125-6.37 3.916-13.632 4.468-2.422 0.16-8.931 0.478-15.514 0.478-1.114 0-2.229-0.006-3.34-0.025l-73.286 0.001-16.031 90.486c-1.499 8.39-1.598 13.582-0.399 15.633 1.245 1.842 3.327 3.040 5.686 3.040 0.267 0 0.527-0.007 0.787-0.042l20.991 0.002-6.542 37.053h-25.616c-10.737 0-18.774-0.298-24.017-0.849-5.554-0.484-10.434-3.037-13.933-6.875-2.725-2.474-4.794-6.889-4.794-11.781 0-0.023 0-0.050 0-0.075 0.618-10.995 2.236-21.298 4.777-31.231l45.207-257.397zM2394.92 375.795h-80.995l-4.494 25.317h71.163c0.164 0.006 0.357 0.007 0.55 0.007 2.873 0 5.462-1.213 7.285-3.156 2.126-2.207 3.529-5.113 3.824-8.334l2.524-13.741zM2320.362 340.439h80.846l5.344-29.963h-81.196l-5.344 29.963zM2430.573 447.851l-3.945 22.222c-2.386 13.937-6.571 26.416-12.368 37.946 5.076-11.030-3.811-8.035-19.392-8.035h-22.071l0.949 29.963c-0.062 0.783-0.097 1.7-0.097 2.624 0 4.25 0.75 8.327 2.122 12.102 0.799 1.019 2.141 1.906 3.696 2.169l7.162-0.467h22.72l-6.542 37.053h-26.669q-28.365 0-35.403-6.387c-4.533-4.409-7.348-10.562-7.348-17.375 0-0.194 0.001-0.393 0.004-0.581l-4.294-111.882h42.598l0.7 22.869h15.28c0.369 0.045 0.795 0.066 1.225 0.066 2.257 0 4.356-0.679 6.105-1.841 1.469-1.7 2.428-3.937 2.548-6.395l2.7-14.051zM2681.105 311.473l-38.949 219.719h14.082l-6.692 37.651h-14.082l-3.145 17.679h-43.644l3.145-17.679h-93.381l6.692-37.651h11.035l38.949-219.719h-11.035l6.642-37.501h151.107l-6.642 37.501zM2598.759 311.473l-8.441 47.538h38.701l8.441-47.538zM2559.814 531.196h38.701l9.141-51.485h-38.701l-9.141 51.485zM2575.39 443.207h38.701l8.538-48.038h-38.701l-8.538 48.038zM2707.371 271.376h43.295l0.349 23.221c0 4.198 2.997 6.242 8.839 6.242h10.538l-6.491 36.502h-28.013q-28.365 0-28.414-22.72v-43.295zM2723.899 468.525h-51.485l6.593-37.203h56.378l7.392-41.747h-56.33l6.593-37.203h152.506l-6.593 37.203h-52.134l-7.392 41.747h52.134l-6.841 37.154h-56.131l-10.538 22.972h26.717l8.289 46.142c0.467 4.193 1.879 7.984 4.021 11.253 0.566-0.119 2.766 0.867 5.199 0.867 0.43 0 0.853-0.031 1.266-0.091l6.895 0.004-6.491 36.502h-17.628c-2.747 0-6.841-0.298-12.286-0.8-5.558-0.422-10.628-2.197-14.98-4.994-1.996-1.245-4.547-6.59-6.094-15.029l-8.94-47.538-24.57 46.841q-11.285 21.373-38.949 21.373h-28.861l6.491-36.502h13.282c0.203 0.005 0.439 0.007 0.679 0.007 3.322 0 6.432-0.914 9.090-2.505 4.221-3.417 7.351-8.189 8.698-13.658l34.117-65.044zM2861.824 270.677l-15.531 42.945q-8.538 23.12-36.405 23.12h-28.163l6.491-36.502h10.686c0.298 0.021 0.645 0.033 0.997 0.033 2.323 0 4.521-0.527 6.481-1.469 1.965-1.228 3.43-3.291 3.886-5.708l8.158-22.467zM1368.83 717.507l17.129 4.993c-7.276 19.070-20.532 34.486-37.444 44.32 0.234 0.731-12.851 5.52-27.055 5.52-0.199 0-0.399-0.001-0.598-0.002-0.887 0.058-1.959 0.090-3.037 0.090-11.616 0-22.347-3.779-31.034-10.178-8.953-7.834-15.011-19.058-16.164-31.695-0.782-2.673-1.475-9.574-1.475-16.64 0-7.067 0.693-13.967 2.017-20.645 3.042-18.429 10.73-35.329 21.809-49.442 2.706-5.351 16.615-16.55 33.092-22.265-2.006-0.288 9.906-3.62 22.604-3.626 0.662-0.042 1.516-0.069 2.378-0.069 11.484 0 21.957 4.35 29.854 11.484 8.249 8.489 13.435 20.071 13.668 32.859l-18.499 3.761c-0.467-9.362-4.244-17.764-10.173-24.129-4.459-3.891-11.31-6.735-18.829-6.735-0.618 0-1.231 0.019-1.84 0.057-0.171-0.006-0.471-0.007-0.771-0.007-9.994 0-19.268 3.085-26.919 8.35-10.375 7.286-18.143 17.999-21.66 30.489-3.002 3.889-6.934 18.293-7.739 33.53 0.336-7.607-0.354-1.026-0.354 5.717 0 5.013 0.381 9.937 1.122 14.742 1.147 8.699 6.094 16.587 13.181 21.682 4.527 3.399 11.905 6.049 19.9 6.049 0.217 0 0.427-0.001 0.642-0.004 0.023 0 0.092 0.001 0.161 0.001 10.272 0 19.701-3.599 27.102-9.601 10.894-9.251 18.618-22.105 21.313-36.723zM1408.082 769.842l26.467-149.26h16.677l-9.74 53.633c7.957-9.095 19.536-14.849 32.468-14.987-0.105-0.001 0.19-0.004 0.484-0.004 6.412 0 12.389 1.863 17.418 5.083 4.947 3.161 8.492 8.409 9.394 14.516 0.221 1.511 0.512 4.989 0.512 8.535 0 5.025-0.581 9.917-1.68 14.605l-12.048 68.131h-16.579l12.135-68.562q2.446-13.733-1.849-19.974c-2.956-3.879-7.58-6.358-12.78-6.358-0.511 0-1.013 0.022-1.513 0.070-5.477 0.084-10.625 1.71-14.985 4.462-5.834 3.366-10.546 8.941-12.955 15.62-1.972 3.277-4.462 12.257-4.879 21.775l-9.916 53.015zM1546.905 641.654l3.747-21.073h16.677l-3.747 21.073zM1524.181 769.842l19.177-108.113h16.677l-19.177 108.113zM1576.817 769.842l19.177-108.113h14.98l-2.747 15.381c7.77-10.831 20.314-17.807 34.491-17.827 0.172-0.003 0.419-0.005 0.662-0.005 5.474 0 10.647 1.294 15.227 3.59 4.726 2.209 8.485 6.311 10.284 11.342 0.857 1.697 1.908 6.251 1.908 11.049 0 0.102 0 0.205-0.001 0.307-0.433 8.362-1.654 16.231-3.598 23.808l-10.435 60.465h-16.677l11.636-65.815c0.821-3.509 1.294-7.538 1.294-11.674 0-1.798-0.090-3.574-0.262-5.326-0.614-3.709-2.85-7.021-5.981-9.077-2.221-1.639-5.826-2.898-9.727-2.898-0.231 0-0.459 0.003-0.687 0.007-7.587 0.070-14.527 2.916-19.843 7.572-5.891 4.862-10.086 14.205-12.583 28.084l-10.486 59.075zM1759.382 756.51c-10.177 8.571-22.704 14.676-36.478 17.23 10.882-2.754 4.357-1.453-2.459-1.453-0.021 0-0.045 0-0.066 0-10.833 0-18.574-2.896-23.367-8.687-3.531-4.434-5.671-10.116-5.671-16.3 0-2.099 0.246-4.145 0.711-6.102 1.142-6.61 4.030-12.579 8.161-17.459 1.949-3.343 8.027-8.306 15.18-11.142-0.97-0.324 6.316-3.044 14.161-3.881-0.205-0.454 8.93-1.713 18.331-1.882 4.621-0.907 19.103-4.66 32.622-10.269-12.436 2.162-12.137 0.562-11.988-0.335 1.298-7.492 0.7-12.733-1.949-15.782-4.012-3.936-9.517-6.358-15.582-6.358-0.804 0-1.606 0.042-2.389 0.127-0.479-0.048-1.153-0.069-1.831-0.069-6.007 0-11.618 1.694-16.382 4.635-6.202 5.167-10.679 12.465-12.282 20.783l-14.548-7.229c3.663-10.45 9.906-19.222 17.986-25.84-1.504 0.866 6.372-3.63 15.251-5.255 0.627-0.857 8.257-2.27 16.214-2.27 0.274 0 0.547 0.001 0.823 0.003 0.598-0.029 1.347-0.045 2.103-0.045 6.41 0 12.54 1.207 18.17 3.41 4.731 1.931 8.74 5.729 11.011 10.508 0.525 1.091 1.634 5.28 1.634 9.727 0 0.115 0 0.226-0.001 0.339-0.49 8.27-1.747 16.022-3.716 23.483l-2.823 17.798c-3.411 16.092-5.473 34.663-5.684 53.678 1.036-21.076 1.031-20.736 1.031-20.393 0 4.291 0.7 8.425 1.987 12.282l-17.507-0.273c-0.734-2.804-1.157-6.028-1.157-9.346 0-1.405 0.075-2.789 0.222-4.155zM1765.226 715.559c-12.063 4.601-26.010 7.452-40.562 7.872 4.444 0.019-2.515 2.147-8.887 5.281 1.965-0.812-1.259 2.197-3.245 5.961-0.706 0.393-2.218 4.058-2.525 8.060 0.007-0.948-0.123 0.157-0.123 1.294 0 3.443 1.234 6.604 3.281 9.055 3.139 3.108 7.487 5.042 12.286 5.042 0.558 0 1.105-0.023 1.65-0.075-0.002 0.004 0.075 0.004 0.154 0.004 6.524 0 12.644-1.725 17.934-4.74 7.131-3.979 12.755-10.327 15.818-17.978 0.887-1.299 3.142-9.193 3.492-17.579l0.788-2.002zM2021.397 620.683h17.978l-15.28 86.239c-2.695 17.744-8.773 33.649-17.579 47.673 0.33-0.327-9.662 8.624-21.757 13.405-1.091 1.385-11.81 4.475-23.251 4.475-0.732 0-1.458-0.007-2.188-0.039-0.783 0.054-1.824 0.086-2.871 0.086-9.947 0-19.261-2.718-27.235-7.458-7.383-4.967-12.609-13.152-13.646-22.599-0.4-2.606-0.775-7.701-0.775-12.887 0-8.044 0.905-15.882 2.615-23.406l15.148-85.537h18.276l-15.28 86.138c-1.414 5.968-2.222 12.822-2.222 19.868 0 3.078 0.157 6.119 0.458 9.12 0.925 5.94 4.549 11.261 9.633 14.474 3.94 2.531 9.897 4.409 16.285 4.409 0.532 0 1.062-0.007 1.589-0.039q19.901 0.002 29.887-9.984t14.98-37.951l15.28-86.141zM2051.358 769.94l19.326-108.163h14.98l-2.695 15.381c7.761-10.834 20.306-17.812 34.481-17.827 0.182-0.003 0.427-0.005 0.669-0.005 5.474 0 10.647 1.294 15.227 3.59 4.726 2.209 8.483 6.311 10.278 11.342 0.857 1.695 1.908 6.244 1.908 11.038 0 0.105 0 0.212-0.001 0.315-0.433 8.361-1.654 16.231-3.598 23.812l-10.435 60.465h-16.677l11.636-65.815c0.821-3.509 1.294-7.538 1.294-11.674 0-1.798-0.090-3.574-0.262-5.326-0.605-3.706-2.837-7.017-5.97-9.068-2.225-1.65-5.826-2.908-9.723-2.908-0.236 0-0.468 0.003-0.704 0.007-7.626 0.001-14.622 2.82-19.983 7.475-6.002 4.956-10.194 14.295-12.692 28.177l-10.486 59.073zM2190.181 641.756l3.747-21.073h16.579l-3.747 21.073zM2167.462 769.94l19.177-108.113h16.677l-19.177 108.113zM2223.438 715.86q5.287-29.963 23.070-44.493c8.847-7.485 20.388-12.035 32.991-12.035 0.022 0 0.045 0 0.070 0 0.618-0.039 1.344-0.062 2.076-0.062 11.707 0 22.067 5.754 28.413 14.588q10.358 14.685 5.765 40.452c-2.151 15.060-7.802 28.5-16.096 39.887-2.25 3.502-12.327 11.437-24.215 15.44 1.634 0.246-7.013 2.692-16.231 2.7-0.588 0.050-1.412 0.079-2.237 0.079-11.691 0-22.044-5.741-28.391-14.558q-10.059-14.636-5.364-42.049zM2240.566 715.86q-3.694 20.823 2.747 31.11c3.69 6.237 10.377 10.358 18.028 10.358 0.314 0 0.627-0.004 0.94-0.020 9.009-0.164 17.084-4.212 22.615-10.542 8.050-9.431 13.282-21.761 14.029-35.281q3.21-16.195-3.232-26.63c-3.677-6.231-10.355-10.353-18-10.353-0.273 0-0.545 0.003-0.816 0.007-9.006 0.142-17.084 4.141-22.653 10.421-7.997 9.185-13.19 21.234-13.924 34.479zM2336.098 769.94l19.225-108.163h14.98l-2.747 15.381c7.77-10.831 20.314-17.807 34.491-17.827 0.172-0.003 0.419-0.005 0.662-0.005 5.474 0 10.647 1.294 15.227 3.59 4.726 2.209 8.485 6.311 10.278 11.342 0.857 1.695 1.908 6.244 1.908 11.038 0 0.105 0 0.212-0.001 0.315-0.433 8.361-1.654 16.231-3.598 23.812l-10.435 60.465h-16.677l11.636-65.815c0.821-3.51 1.294-7.539 1.294-11.683 0-1.795-0.090-3.569-0.26-5.321-0.614-3.709-2.85-7.021-5.981-9.077-2.218-1.639-5.818-2.899-9.711-2.899-0.236 0-0.468 0.003-0.704 0.007-7.585 0.070-14.525 2.916-19.843 7.572-5.891 4.862-10.086 14.201-12.583 28.084l-10.486 59.075zM2444.802 811.389l26.517-149.557h14.98l-2.497 14.031c6.24-7.839 14.624-13.722 24.267-16.784-5.154 1.789 0.539 0.252 6.586 0.252 0.212 0 0.427 0.001 0.639 0.004 0.279-0.007 0.645-0.019 1.017-0.019 7.593 0 14.558 2.706 19.975 7.202 6.254 5.588 10.443 13.476 11.244 22.341 0.546 1.871 1.036 6.79 1.036 11.825 0 5.035-0.49 9.951-1.421 14.713-2.4 14.066-8.066 26.966-16.192 37.94-0.891 2.875-10.773 11.616-22.661 16.445 2.163-0.17-5.978 2.45-14.724 2.521 0.347-0.001 0.079 0.002-0.19 0.002-5.007 0-9.678-1.436-13.623-3.918-5.045-3.309-8.912-8.276-10.819-14.124l-7.549 56.833zM2476.716 716.509q-3.694 20.874 2.197 30.861c3.179 5.985 9.374 9.994 16.501 9.994 0.115 0 0.231-0.001 0.345-0.002 8.562-0.347 16.124-4.431 21.121-10.662 7.827-9.445 12.978-21.91 13.697-35.547 2.116-9.921 1.366-20.207-2.58-27.1-3.061-6.142-9.297-10.289-16.5-10.289-0.045 0-0.090 0-0.135 0-8.724 0.567-16.333 4.947-21.232 11.473-7.773 9.239-13.014 21.735-13.803 35.425zM2634.765 756.457c-10.177 8.571-22.704 14.676-36.482 17.23 10.882-2.754 4.366-1.453-2.459-1.453-0.021 0-0.042 0-0.066 0-10.833 0-18.574-2.896-23.367-8.687-3.531-4.434-5.671-10.119-5.671-16.3 0-2.099 0.246-4.145 0.711-6.102 1.142-6.61 4.030-12.579 8.17-17.457 1.949-3.34 8.027-8.306 15.18-11.142-0.97-0.324 6.316-3.044 14.161-3.881-0.205-0.454 8.93-1.713 18.331-1.882 4.623-0.907 19.103-4.66 32.622-10.269-12.436 2.158-12.137 0.562-11.988-0.335 1.298-7.492 0.7-12.733-1.947-15.782-4.015-3.936-9.517-6.358-15.582-6.358-0.809 0-1.606 0.042-2.389 0.127-0.479-0.048-1.153-0.069-1.831-0.069-6.007 0-11.618 1.694-16.382 4.635-6.202 5.167-10.679 12.465-12.282 20.783l-14.548-7.229c3.663-10.45 9.906-19.222 17.986-25.84-1.504 0.866 6.372-3.63 15.251-5.255 0.627-0.857 8.257-2.27 16.214-2.27 0.274 0 0.547 0.001 0.823 0.003 0.598-0.029 1.347-0.048 2.103-0.048 6.41 0 12.54 1.207 18.17 3.41 4.731 1.931 8.74 5.729 11.011 10.508 0.525 1.091 1.634 5.28 1.634 9.727 0 0.115 0 0.226-0.001 0.339-0.49 8.27-1.747 16.022-3.716 23.483l-2.823 17.798c-3.411 16.092-5.473 34.663-5.684 53.68 1.036-21.076 1.031-20.736 1.031-20.393 0 4.291 0.7 8.425 1.987 12.282l-17.507-0.273c-0.734-2.804-1.157-6.028-1.157-9.346 0-1.405 0.075-2.789 0.222-4.155zM2640.608 715.508c-12.063 4.601-26.010 7.452-40.562 7.872 4.444 0.019-2.515 2.147-8.89 5.281 1.965-0.812-1.259 2.197-3.247 5.961-0.706 0.393-2.218 4.058-2.525 8.060 0.019-0.948-0.123 0.157-0.123 1.294 0 3.443 1.234 6.604 3.281 9.055 3.139 3.108 7.487 5.042 12.286 5.042 0.558 0 1.105-0.023 1.65-0.079-0.002 0.004 0.075 0.004 0.154 0.004 6.522 0 12.644-1.725 17.934-4.74 7.131-3.979 12.755-10.327 15.82-17.981 0.979-1.355 3.297-9.328 3.669-17.807l0.761-1.871zM2676.112 811.438l1.199-17.228c2.959 1.031 6.368 1.638 9.919 1.658-0.49-0.003-0.262 0-0.037 0 3.135 0 6.095-0.761 8.7-2.109 3.649-2.038 6.598-5.193 8.381-8.996 5.894-8.686 11.565-22.906 14.066-38.194-8.066 26.866-7.319 25.417-6.274 23.421l-18.126-108.31h17.978l9.387 62.622c1.199 7.939 2.148 16.279 2.695 24.966q4.993-12.634 11.237-24.62l32.209-63.020h16.679l-56.876 109.861c-17.149 34.246-39.747 63.234-66.991 87.039 48.254-54.475 40.985-48.218 32.363-44.53 4.391-2.046-0.543-0.462-5.846-0.462-0.079 0-0.157 0-0.235-0.001-3.894-0.086-7.573-0.97-10.898-2.493z" fill="#394144" /></svg>