<?xml version="1.0" standalone="no"?><!DOCTYPE svg PUBLIC "-//W3C//DTD SVG 1.1//EN" "http://www.w3.org/Graphics/SVG/1.1/DTD/svg11.dtd"><svg class="icon" width="200px" height="200.00px" viewBox="0 0 1024 1024" version="1.1" xmlns="http://www.w3.org/2000/svg"><path d="M227.555556 0h568.888888c125.159602 0 227.555556 102.395953 227.555556 227.555556v568.888888c0 125.159602-102.40607 227.555556-227.555556 227.555556H227.555556C102.395953 1024 0 921.59393 0 796.444444V227.555556C0 102.395953 102.395953 0 227.555556 0z m8.589483 15.459047h551.720039c121.375778 0 220.685992 99.310214 220.685992 220.685992v551.720039c0 121.375778-99.310214 220.685992-220.685992 220.685992H236.145039c-121.375778 0-220.685992-99.310214-220.685992-220.685992V236.145039c0-121.375778 99.310214-220.685992 220.685992-220.685992z" fill="#C54953" /><path d="M236.145039 15.459047h551.720039c121.375778 0 220.685992 99.310214 220.685992 220.685992v401.27761c-301.876341 108.091924-629.187267 121.304958-993.092023-2.094256V236.145039c0-121.375778 99.310214-220.685992 220.685992-220.685992z" fill="#FD2821" /><path d="M1008.55107 637.412532v150.442429c0 121.375778-99.310214 220.685992-220.685992 220.685992H236.145039c-121.375778 0-220.685992-99.310214-220.685992-220.685992V635.318276c363.904756 123.399214 691.205564 110.18618 993.092023 2.094256z" fill="#FEFEFE" /><path d="M133.384868 209.000652h189.788132c12.049558 0 17.826467 5.776908 17.826466 17.826467 0 12.039441-5.776908 17.826467-17.826466 17.826466H133.384868c-12.049558 0-17.826467-5.787026-17.826467-17.826466 0-11.563934 5.776908-17.826467 17.826467-17.826467z m291.921038 60.692948v152.708676c0 12.049558-5.776908 17.826467-17.816349 17.826467-12.049558 0-17.826467-5.776908-17.826467-17.826467V269.6936c0-12.039441 5.776908-17.826467 17.826467-17.826467 12.039441 0 17.81635 6.262533 17.816349 17.826467z m346.351454 26.496887l49.614638 49.614639c8.194914 8.184797 8.194914 16.865335 0 25.050131-8.184797 8.194914-16.855218 8.194914-25.050131 0l-49.624756-49.614638c-8.184797-8.194914-8.184797-16.865335 0-25.050132 8.194914-8.670421 16.855218-8.670421 25.050131 0zM265.373565 492.726777h14.447329l-12.039441 64.061968c-0.961132 6.748157-0.485625 12.049558 2.893513 15.418578 2.893513 3.854645 7.223665 5.776908 13.000573 5.776908s11.078309-1.922264 15.418578-5.776908c4.330152-3.36902 7.223665-8.670421 8.670422-15.418578l11.563933-64.061968h14.44733l-12.525066 65.508724c-1.922264 10.602802-7.223665 18.787599-14.457447 24.564507-7.223665 6.262533-16.855218 9.631553-26.496887 9.631553-9.631553 0-17.340842-3.36902-22.642243-9.631553s-7.223665-14.447329-5.301401-24.564507l13.01069-65.508724z m77.072658 28.419151h13.971822l-1.446756 7.70929h0.485624c5.301401-5.301401 12.039441-8.184797 19.263106-8.184797 5.301401 0 10.602802 1.922264 14.457447 6.262533s5.291284 10.117177 3.854644 18.301974l-8.670421 46.731243h-13.971822l8.194914-41.915467c0.961132-4.815776 0.485625-8.670421-1.922264-11.078309-1.932381-2.407888-5.301401-3.854645-9.156046-3.854644s-7.709289 1.436639-10.602802 3.854644c-2.893513 2.407888-5.301401 6.262533-6.262532 11.078309l-8.184797 41.915467h-13.01069l13.01069-70.810125z m69.848993 0h13.486198l-13.486198 70.334618h-13.971822l13.971822-70.334618z m5.301401-28.419151h13.961705l-2.893513 14.447329h-13.971822l2.893513-14.447329z m13.486198 63.58646c1.446756-7.223665 2.893513-13.000573 4.815776-17.340842 1.932381-3.854645 4.340269-7.223665 7.709289-9.64167 2.893513-2.407888 5.776908-4.815776 9.156046-6.262533 4.340269-1.922264 8.670421-2.893513 13.486198-2.893513 5.301401 0 9.631553 0.961132 12.525065 2.893513 2.407888 1.446756 4.815776 3.854645 6.262533 6.262533 2.407888 2.893513 3.854645 6.262533 3.854645 9.64167 0.485625 3.844527 0 9.631553-1.446757 17.340842-1.446756 7.223665-2.893513 13.01069-4.815776 16.865335s-4.330152 7.223665-7.699172 10.117178c-0.961132 0.961132-2.407888 1.922264-3.854645 2.893512-1.446756 1.436639-3.36902 2.407888-4.815776 2.893513-4.340269 1.922264-9.156046 2.893513-13.971822 2.893513-5.301401 0-9.156046-0.961132-12.525066-2.893513-2.893513-1.446756-4.815776-3.36902-6.748157-5.776908-1.922264-2.893513-3.36902-6.262533-3.854645-10.117178 0-3.854645 0.485625-9.156046 1.932381-16.865335z m42.866481 0.485625c0.961132-3.854645 1.446756-7.223665 1.446756-11.07831 0-1.932381-0.475507-3.854645-1.446756-5.787025-0.961132-1.446756-1.932381-2.893513-3.854645-3.854645s-4.340269-1.436639-6.262533-1.436639c-2.407888 0-4.815776 0.485625-6.748157 1.436639-1.932381 0.961132-3.854645 1.932381-5.301401 3.854645-1.446756 1.932381-2.893513 3.854645-3.854645 5.787025-1.446756 3.36902-2.407888 7.223665-2.893513 11.07831-0.961132 3.36902-0.961132 7.223665-1.436639 10.602802 0 1.932381 0.485625 4.340269 1.436639 6.262533 0.961132 1.446756 2.407888 2.893513 3.854645 3.36902 1.932381 0.961132 3.854645 1.446756 6.262533 1.446756s4.815776-0.485625 6.748157-1.446756 3.854645-1.922264 5.301401-3.36902c1.922264-1.922264 2.893513-3.844527 3.854645-6.262533 1.446756-3.854645 1.922264-7.223665 2.893513-10.602802z m31.788171-35.642816h13.971822l-1.446756 7.709289h0.485624c5.301401-5.301401 12.039441-8.184797 19.263106-8.184797 5.301401 0 10.602802 1.922264 14.44733 6.262533 3.854645 4.340269 5.301401 10.117177 3.854644 18.301974l-8.670421 46.731243h-13.971822l8.194914-41.915466c0.961132-4.815776 0.485625-8.670421-1.932381-11.07831-1.922264-2.407888-5.301401-3.854645-9.156046-3.854644s-7.709289 1.436639-10.592684 3.854644c-2.893513 2.407888-5.301401 6.262533-6.262533 11.07831l-8.194914 41.915466h-13.961705l13.961705-70.810125z m75.625902-28.419152h35.167309c3.854645 0 7.223665 0.485625 10.592684 0.961132 3.854645 0.961132 6.748157 3.36902 9.631553 5.776908 2.893513 2.407888 4.815776 5.787026 5.776909 9.631553 1.446756 4.815776 1.446756 9.64167 0.485624 13.971822-1.446756 7.223665-5.301401 13.971822-11.563934 20.234355s-14.447329 9.631553-24.564507 9.631553h-22.166735l-7.223665 38.536329h-14.44733l18.301975-98.753769z m6.262533 46.245618h21.681111c5.301401 0 10.117177-1.932381 13.486197-5.301401 2.893513-2.893513 5.301401-6.748157 5.776909-11.078309 0.485625-2.893513 0.485625-5.776908 0-8.184797-0.485625-1.932381-1.922264-3.854645-3.854645-4.815776-2.893513-1.922264-6.262533-2.893513-10.117177-2.893513h-21.195487l-5.787026 32.273796z m90.083348 46.731243c-1.932381 2.407888-4.340269 4.340269-7.223665 5.291284-3.854645 1.446756-7.709289 1.932381-11.563934 1.932381-7.709289 0-13.01069-2.407888-16.37971-6.262533-3.854645-3.854645-4.815776-9.156046-3.854645-15.418579 0.961132-5.776908 3.854645-11.078309 8.670421-14.932954 4.330152-3.844527 10.592685-5.776908 17.81635-6.262532h19.273223l1.446756-7.223665c1.446756-6.262533-2.893513-9.145928-12.525065-9.145929-2.893513 0-5.776908 0.485625-8.194914 0.961132-2.407888 0.961132-4.330152 2.407888-5.776909 4.340269l-9.156045-8.670421c6.748157-7.223665 14.932954-10.602802 25.050131-10.117177 8.670421 0 15.418578 1.446756 19.748731 4.815776 4.340269 3.36902 5.787026 9.631553 4.340269 18.301974l-9.145929 48.167882h-13.971822l1.446757-5.776908z m4.815776-23.603375h-16.37971c-8.194914 0-12.525066 2.893513-13.486198 8.670421-0.485625 2.418005 0.485625 4.815776 1.922264 6.262533 1.446756 1.932381 4.815776 2.893513 9.156046 2.893513 5.776908 0 10.117177-0.485625 12.525065-1.932381s4.340269-4.815776 5.301401-10.117178l0.961132-5.776908z m26.011263-40.944217h14.932954l6.748158 49.614638h0.485624l25.525639-49.614638h14.932954l-45.759994 85.267571c-2.893513 5.301401-6.262533 9.145928-10.117177 11.07831s-7.709289 2.893513-12.049559 2.893513h-4.815776l2.407888-13.486198h3.854645c1.922264 0 3.854645-0.485625 5.301401-1.446756 1.932381-0.961132 3.36902-2.893513 4.340269-4.815777l6.262533-11.553817-12.039441-67.926729z m-4.340269-319.864683c10.602802 0 15.894086 5.301401 15.894086 15.904203v7.243899l-31.798289 32.668366v-39.902148c0-10.602802 5.301401-15.904203 15.904203-15.904203z m15.894086 26.071966v196.971328c0 10.592685-5.301401 15.894086-15.894086 15.894086s-15.904203-5.301401-15.904203-15.894086V260.031695l31.798289-32.658249z" fill="#FFFFFF" /><path d="M719.149209 199.369099c-7.223665-6.748157-18.301974-6.748157-25.050132 0.485625l-69.848993 71.295749v-42.390973c0-2.407888-0.475507-4.330152-1.436639-6.262533-1.932381-8.184797-9.145928-13.971822-17.340842-13.971822H439.277728l-8.184796-8.184797c-7.223665-6.748157-18.301974-6.748157-25.050132 0.485625-6.748157 7.223665-6.748157 18.301974 0.485625 25.050131l13.486197 13.000573c3.36902 3.36902 8.184797 5.301401 13.010691 4.815777h156.553204v63.58646l-13.971822 14.447329-49.139131-49.139131c-0.961132-0.961132-1.922264-1.922264-3.36902-2.407888-7.223665-6.748157-17.81635-6.748157-25.050132 0.485625l-62.625328 62.139704c-6.748157 6.748157-6.748157 18.301974 0 25.050131s18.301974 6.748157 25.050131 0l48.360108-48.360108-19.940956-20.042129 1.446756-1.436639 71.740905 72.125358c1.507459 1.284882 3.136325 2.296599 5.331753 3.025036 6.505345 3.470192 13.789713 2.640583 19.394629-1.770506l37.929298-38.971367v-0.212461l94.899125-97.307013c6.748157-7.223665 6.748157-18.301974-0.485624-25.525639zM589.092892 361.962258v39.730156c0 1.446756-0.961132 2.893513-1.932381 2.893513l-18.301974 0.485624c-9.631553 0-17.826467 8.194914-17.826466 17.826467s8.184797 17.826467 17.826466 17.826467l35.157192-0.485625h2.893513c9.631553 0 17.81635-8.194914 17.816349-17.826466v-97.054084l-35.642816 36.614065z m317.446678-124.05683h-14.932954v-25.050131c0-9.631553-8.184797-17.826467-17.81635-17.826467s-17.826467 8.194914-17.826467 17.826467v25.050131h-99.714901c-9.631553 0-17.81635 8.184797-17.816349 17.81635 0 9.64167 8.184797 17.826467 17.816349 17.826466h99.714901v131.988698c0 1.446756-0.961132 2.407888-1.93238 2.407888h-23.603375c-9.631553 0-17.81635 8.194914-17.81635 17.826466s8.184797 17.826467 17.81635 17.826467h43.362222c10.117177-1.446756 17.81635-10.117177 18.301974-20.709862V273.558361h14.932954c9.631553 0 17.826467-8.184797 17.826467-17.826466-0.485625-9.631553-8.670421-17.81635-18.301974-17.81635z m-717.753038 93.937993c0.485625-1.446756 0.961132-2.893513 0.961131-4.340269h150.290672c9.64167 0.485625 17.826467-7.709289 18.312091-17.340842s-7.709289-17.81635-17.340842-18.301974H117.490782c-9.631553-0.485625-17.826467 7.699172-18.301974 17.340842-0.485625 9.631553 7.699172 17.81635 17.340842 18.301974h35.157192l-32.759421 85.267571c-2.893513 7.709289 0 16.37971 6.748157 21.195487 3.36902 3.854645 8.184797 6.262533 13.486198 6.262533h189.312625c1.446756 0 2.893513 0 3.854644-0.485624 2.407888 0 4.330152 0 6.748158-0.961132 9.145928-3.36902 13.971822-13.486198 11.078309-22.642243l-19.263106-54.91604c-3.36902-9.156046-13.486198-13.971822-22.642243-11.078309-9.156046 3.36902-13.971822 13.486198-11.078309 22.642243l10.117177 28.904776c0 1.446756-0.961132 2.407888-1.922264 2.893513H164.222025c-1.436639 0-2.893513-1.446756-2.407889-2.893513v-0.961132l26.972396-68.877744z" fill="#FFFFFF" /><path d="M648.60213 767.306973H515.652301l-38.060822 179.681072h128.619678c6.262533 0 12.525066-5.776908 13.971822-13.01069l36.614065-154.155433c1.446756-6.73804-2.407888-12.525066-8.194914-12.525066z" fill="#066B6A" /><path d="M554.18863 767.306973H418.830913c-6.262533 0-12.525066 5.776908-13.971822 13.010691l-36.614066 154.155433c-1.446756 7.223665 1.932381 13.01069 8.194914 13.01069h139.697987l38.050704-180.166696z" fill="#0A2F69" /><path d="M478.077104 767.306973h-59.256308c-6.262533 0-12.525066 5.776908-13.971823 13.010691l-36.614065 154.155433c-1.446756 7.223665 1.932381 13.01069 8.194914 13.01069h64.072085l37.575197-180.166696z" fill="#E41D21" /></svg>