<?xml version="1.0" standalone="no"?><!DOCTYPE svg PUBLIC "-//W3C//DTD SVG 1.1//EN" "http://www.w3.org/Graphics/SVG/1.1/DTD/svg11.dtd"><svg class="icon" width="200px" height="50.00px" viewBox="0 0 4096 1024" version="1.1" xmlns="http://www.w3.org/2000/svg"><path d="M775.68 170.453333c42.112 43.690667 47.36 113.621333 12.416 164.693334a165.248 165.248 0 0 1-19.626667 22.613333l-78.165333 78.208c-16.554667 16.554667-33.365333 33.109333-50.133333 49.664-8.533333 8.533333-16.810667 17.066667-25.301334 25.770667 0.682667 1.152 1.109333 2.090667 1.834667 2.986666 27.136 27.392 54.272 54.528 81.450667 81.92 25.770667 25.770667 51.968 51.072 77.269333 77.312 24.661333 25.557333 35.925333 56.618667 35.669333 91.818667a131.328 131.328 0 0 1-108.8 128.384c-44.416 7.594667-83.285333-4.608-115.968-35.925333-9.898667-9.386667-19.114667-19.072-28.757333-28.757334-1.408-1.152-2.773333-2.304-4.394667-3.882666a98.133333 98.133333 0 0 0-4.821333 4.608c-10.581333 10.581333-20.906667 21.376-32 31.488-24.832 22.570667-54.058667 34.56-87.637333 34.304-51.328-0.256-89.728-23.253333-116.181334-66.517334a123.477333 123.477333 0 0 1-16.810666-52.693333c-3.2-36.096 6.229333-68.309333 28.757333-96.170667 8.277333-10.325333 18.176-19.541333 27.605333-29.013333 44.416-44.586667 89.045333-89.002667 133.674667-133.632 1.834667-1.365333 3.712-3.456 5.76-5.546667-1.365333-1.578667-2.56-2.986667-3.925333-4.138666L382.464 402.816c-17.493333-17.493333-35.2-34.730667-52.224-52.48a126.08 126.08 0 0 1-34.730667-77.738667c-2.986667-34.048 5.546667-64.64 25.984-91.818666 21.632-28.501333 50.389333-45.994667 85.802667-51.072 44.672-6.4 83.072 7.125333 115.072 38.869333 8.277333 8.32 16.554667 16.810667 24.832 25.088 1.834667 1.834667 3.669333 3.242667 5.76 5.290667 8.746667-8.746667 17.493333-17.024 25.514667-25.770667 17.749333-18.645333 37.973333-33.109333 63.061333-39.808 51.754667-13.568 96.853333-1.578667 134.144 37.077333z m-223.658667 402.389334c-2.048 2.090667-3.882667 3.669333-5.717333 5.546666-17.066667 17.237333-34.090667 34.261333-51.328 51.498667-19.328 19.584-38.656 38.912-57.770667 58.453333-14.250667 14.250667-28.501333 28.544-42.538666 43.050667a44.074667 44.074667 0 0 0-13.354667 34.474667c1.365333 19.114667 11.050667 33.152 28.757333 40.064 17.92 6.869333 34.304 3.413333 48.341334-9.429334 6.4-5.973333 12.629333-12.458667 18.858666-18.645333 4.608-4.608 9.173333-9.429333 14.037334-14.293333-16.341333-16.298667-32.213333-32.426667-47.872-47.829334 20.693333-20.693333 40.96-40.746667 61.184-61.226666 15.658667 15.658667 31.786667 31.573333 48.128 47.872 16.554667-16.554667 32.426667-32.426667 47.829333-47.616l61.226667 61.184c-15.189333 15.445333-31.061333 31.317333-47.658667 47.616 3.242667 3.456 5.973333 6.229333 8.533333 8.746666l18.56 18.56c3.157333 3.029333 6.357333 5.973333 9.728 8.832 14.933333 12.416 36.608 12.885333 53.376 1.834667 15.658667-10.325333 23.466667-30.378667 18.858667-48.768-2.517333-10.368-8.746667-18.176-16.085333-25.557333-21.632-21.376-43.264-43.221333-64.853334-64.853334l-86.101333-86.058666c-1.152-1.152-2.730667-2.304-4.138667-3.413334zM1020.714667 416.426667c23.253333 22.101333 37.290667 49.493333 40.021333 81.706666 4.608 57.045333-18.176 100.522667-67.157333 129.536-49.237333 28.970667-114.133333 20.224-155.306667-19.584-9.216-8.96-18.176-18.176-27.392-27.392a247.466667 247.466667 0 0 0-7.594667-7.338666c-16.341333 16.341333-32.426667 32.213333-48.085333 47.872-20.48-20.48-40.746667-40.746667-61.013333-61.226667 15.701333-15.658667 31.573333-31.744 48.128-48.085333-16.341333-16.341333-32.213333-32.426667-47.872-47.872 20.48-20.48 40.533333-40.490667 61.226666-60.970667 15.189333 15.189333 31.274667 31.061333 47.616 47.402667 2.56-2.56 4.821333-4.608 7.125334-6.656 11.946667-11.52 23.253333-23.722667 35.669333-34.304 18.858667-16.085333 40.96-25.514667 65.578667-28.501334 41.856-5.077333 78.464 6.656 109.056 35.413334z m-749.397334 4.394666c8.746667 8.746667 17.493333 17.706667 26.453334 26.453334 0.725333 0.682667 1.621333 1.365333 3.456 2.730666 16.128-15.872 32-32 47.402666-47.36 20.48 20.693333 40.533333 40.96 61.226667 61.653334-15.189333 15.189333-31.061333 31.061333-47.616 47.36 16.554667 16.597333 32.64 32.682667 48.298667 48.554666l-61.184 61.226667-47.872-47.872c-1.621333 1.408-2.986667 2.304-4.394667 3.712l-25.984 25.984c-20.48 20.906667-44.842667 34.730667-73.642667 39.125333-45.056 7.125333-84.181333-5.546667-116.650666-37.76a125.738667 125.738667 0 0 1-35.84-68.778666c-7.168-40.96 2.517333-77.781333 29.184-109.738667a124.970667 124.970667 0 0 1 73.856-43.946667c47.872-9.216 89.045333 4.352 123.306666 38.656z m-107.648 47.146667a45.994667 45.994667 0 0 0-33.834666 39.125333 46.08 46.08 0 0 0 23.68 45.312c18.432 9.898667 39.808 6.442667 55.466666-8.96l17.706667-17.706666c4.138667-4.608 8.277333-8.96 12.672-13.354667a12.032 12.032 0 0 0-1.834667-2.56c-10.581333-10.581333-20.736-21.589333-31.744-31.488-11.946667-11.093333-26.453333-14.506667-42.112-10.368z m738.090667 7.808c-12.885333 10.837333-24.405333 23.466667-38.186667 37.077333 3.669333 2.730667 6.4 4.565333 8.96 6.869334 9.429333 9.216 18.176 18.901333 28.074667 27.392 14.506667 12.672 36.138667 13.824 52.48 3.669333 16.768-10.325333 25.045333-29.866667 20.906667-48.981333-7.125333-32.426667-46.464-46.933333-72.234667-26.026667zM409.6 218.026667a45.44 45.44 0 0 0-15.616 73.898666c17.92 18.645333 36.352 36.821333 54.528 54.997334 32.426667 32.64 64.64 65.322667 97.066667 98.005333l6.442666 6.186667c1.834667-1.578667 3.456-2.730667 4.864-4.138667 7.594667-7.594667 15.146667-15.36 22.997334-23.210667 43.946667-43.946667 87.893333-87.68 131.584-131.626666 17.749333-17.706667 16.810667-47.616-1.365334-64.853334-16.554667-15.658667-42.581333-17.28-60.032-2.304-12.458667 10.581333-23.253333 22.741333-34.773333 34.261334 0 0.213333 0 0.682667-0.426667 1.621333l47.616 47.616c-20.48 20.48-40.746667 40.533333-61.226666 61.184-15.872-15.616-31.744-32-48.512-48.298667-8.533333 8.746667-16.341333 16.810667-24.405334 24.832-7.808 8.106667-15.872 15.914667-24.149333 23.936l-61.44-61.44c16.810667-16.298667 32.682667-32 48.554667-47.616-0.682667-1.365333-0.938667-2.304-1.621334-2.986666-10.794667-10.794667-21.162667-21.845333-32.426666-32-13.824-12.373333-30.378667-14.933333-47.658667-8.021334z" fill="#DA241E" /><path d="M3464.746667 570.752c17.792 0 26.88 9.045333 26.88 27.221333 0.341333 25.045333 0 50.090667 0 75.093334v79.914666c6.912-1.450667 12.373333-2.56 18.517333-3.626666v30.848c-5.802667 2.176-11.605333 4.010667-18.517333 6.528v38.826666a40.789333 40.789333 0 0 1-1.450667 11.648 23.125333 23.125333 0 0 1-21.76 15.957334c-5.12 0.384-9.813333 0-16 0v-55.552c-30.122667 6.912-58.069333 16.341333-87.466667 23.594666a149.546667 149.546667 0 0 1 0-31.189333c5.077333-2.56 9.386667-4.010667 15.573334-6.186667v-171.349333h37.76v27.946667h33.408c0-6.912 0.384-13.44 0.384-19.968v-21.418667h-82.048v-27.562667c2.901333-0.384 5.802667-0.725333 9.045333-0.725333h85.674667z m-593.536-6.186667v38.101334c4.352 0.384 7.594667 0.725333 10.496 0.725333h77.354666c7.637333 0 14.890667 1.450667 21.418667 5.802667a30.506667 30.506667 0 0 1 12.714667 25.813333c0 31.914667 0.341333 63.530667 0 95.445333-0.384 25.045333-18.517333 41.770667-43.562667 42.112-22.186667 0.384-44.288 0-66.432 0h-11.648v35.242667c0 5.077333 0 10.154667-0.341333 14.848-1.834667 13.824-8.704 23.253333-22.528 26.88-7.594667 2.176-15.232 2.56-25.045334 3.626667v-79.488c-10.538667-2.56-20.693333-1.109333-30.506666-1.109334-10.154667-0.341333-19.968 0-30.122667 0h-60.586667V604.16h47.872v139.776h71.552c2.133333-8.362667 2.56-100.181333 0.341334-112.170667H2765.226667v-28.330666h58.112v-38.485334c8.704 0 16.298667-0.341333 23.936-0.341333h23.978666zM2039.466667 660.778667c-13.397333 10.88-27.562667 20.693333-42.453334 31.189333a78.592 78.592 0 0 1-5.461333-7.978667c-24.32-39.552-76.586667-40.277333-102.4-1.792-20.309333 30.848-17.024 84.565333 9.130667 109.653334 22.869333 22.101333 59.52 22.826667 82.048 0.341333 6.869333-6.186667 11.605333-13.824 17.749333-21.76 13.824 10.112 27.605333 19.925333 41.386667 29.738667-19.925333 35.584-72.576 60.245333-125.952 49.749333-49.365333-9.472-91.136-55.210667-95.488-106.752-5.418667-66.048 35.968-109.994667 79.530666-126.293333 50.773333-18.901333 111.061333 0 141.909334 43.904z m125.994666-51.584c65.706667 1.109333 122.709333 54.826667 120.533334 121.6 1.450667 60.288-48.64 122.752-126.72 120.917333-60.245333-1.450667-115.797333-55.893333-115.072-122.325333 0.725333-69.717333 62.464-121.6 121.258666-120.192z m1373.738667-45.013334c12.330667 14.933333 24.32 29.44 36.992 44.672l-19.584 14.506667c8.362667 2.901333 15.957333 2.176 23.253333 1.109333 1.792-0.384 3.242667-3.285333 4.693334-5.461333l29.44-44.629333c1.792-2.901333 3.968-5.845333 6.528-9.813334 10.154667 7.253333 19.968 14.165333 30.122666 21.76-10.154667 13.098667-19.626667 25.045333-30.848 39.253334h33.706667v28.629333c-18.133333-0.341333-35.2-0.341333-52.949333-0.341333v41.386666h52.608c0.725333 9.813333 1.109333 18.858667 0 29.44h-47.189334c18.901333 42.069333 37.034667 82.346667 55.552 123.733334-14.165333 1.834667-27.221333 0.426667-40.661333 1.109333-13.44-29.781333-26.88-59.178667-40.661333-90.410667-1.792 3.669333-3.626667 5.845333-4.352 8.362667-7.637333 18.901333-14.890667 37.76-22.528 56.661333-7.594667 18.858667-17.066667 25.386667-37.376 25.386667h-14.165334c16.341333-42.112 31.957333-82.389333 48.298667-124.16h-39.594667c-2.56-10.154667-1.066667-19.2-1.066666-29.013333h46.08c0.768-13.824 0.384-26.88 0.384-41.386667-15.232-1.109333-30.122667 0-45.397334-0.768v-28.288h33.792c-9.813333-17.066667-18.517333-31.957333-27.946666-48.298667 7.594667-4.352 14.506667-8.704 22.869333-13.44z m-2268.586667 50.133334l0.341334 11.221333v125.269333c0 12.373333 2.133333 23.936 8.704 34.858667 9.429333 15.957333 23.594667 23.210667 41.728 22.485333 18.517333-0.725333 33.408-8.704 41.045333-26.112 3.968-9.088 6.186667-19.242667 6.186667-29.056 0.725333-42.496 0.341333-84.949333 0.341333-127.445333 0.384-2.56 0.384-6.528 0.384-10.88h58.026667v231.978667l-24.32 0.384h-25.386667c-1.066667-8.362667-1.792-16-2.901333-23.594667-1.450667 0-2.56-0.384-2.901334 0-13.781333 14.848-31.232 22.144-50.816 24.661333-23.594667 3.285333-46.506667 0.384-67.157333-12.373333-21.76-13.397333-33.749333-33.365333-38.485333-58.026667a120.746667 120.746667 0 0 1-2.56-25.429333c-0.341333-43.562667 0-87.125333 0-130.688 0-2.176 0.384-4.352 0.384-7.253333h57.344z m1321.813334 0.341333c29.738667 6.528 46.08 27.221333 53.333333 55.552 3.242667 11.946667 4.693333 24.661333 5.077333 37.034667 0.725333 43.946667 0.384 87.850667 0.384 131.754666 0 2.176-0.384 4.352-0.384 6.186667-7.637333 2.56-39.210667 2.901333-52.992 0.725333 0-3.626667-0.384-7.253333-0.384-11.264 0-42.453333 0.384-84.906667-0.341333-127.402666 0-9.429333-1.834667-19.242667-4.693333-28.330667-5.12-16.341333-17.493333-25.429333-33.066667-26.154667-17.450667-0.725333-31.573333 5.461333-39.936 21.802667-5.802667 11.264-7.637333 23.594667-7.637333 36.266667v136.533333h-52.992c-0.384-4.693333-0.725333-8.704-0.725334-12.373333 0-42.069333 0.341333-84.181333-0.384-126.677334a107.093333 107.093333 0 0 0-4.352-28.288c-4.352-15.616-14.890667-25.429333-31.189333-26.88-16.725333-1.834667-31.232 4.010667-40.661333 18.517334a61.098667 61.098667 0 0 0-9.472 34.474666v139.050667c-7.978667 2.56-41.386667 3.285333-59.178667 1.109333-1.450667-25.429333-0.341333-50.858667-0.725333-76.245333-0.341333-25.770667 0-51.541333 0-77.354667v-77.653333h53.376c0.725333 7.978667 1.450667 15.573333 2.56 25.770667 13.056-12.714667 26.453333-21.418667 42.837333-25.045334 16.682667-4.010667 33.408-4.394667 49.706667 1.066667 16 5.461333 28.330667 15.957333 37.418666 30.848 6.912-5.802667 12.373333-11.221333 18.517334-15.957333 22.869333-17.066667 48.256-22.869333 75.861333-17.066667z m-958.805334 3.285333c25.386667 11.946667 38.485333 33.024 43.946667 59.52 1.792 9.429333 2.858667 19.242667 2.858667 28.672 0.384 43.221333 0 86.4 0 129.621334 0 3.242667-0.341333 6.144-0.725334 10.154666-17.066667 0.725333-34.474667 0.725333-52.992 0.725334v-137.6c0-7.978667-1.066667-16.341333-3.242666-24.32-5.461333-20.309333-18.176-31.232-36.309334-32.682667-22.528-1.792-41.045333 8.021333-48.64 27.264-3.285333 7.978667-5.12 17.066667-5.461333 25.770667-0.384 42.837333-0.384 85.674667-0.384 128.512v12.330666h-57.344c-2.56-7.978667-3.285333-218.197333-0.725333-231.594666h49.024c1.066667 7.253333 2.133333 14.506667 3.242666 22.869333 1.450667-0.725333 2.901333-1.109333 3.626667-1.834667 13.824-14.506667 31.232-21.034667 50.474667-23.594666 17.792-2.56 35.584-1.450667 52.650666 6.186666z m1656.874667-49.024c14.933333 0 26.88 9.813333 29.781333 24.32 1.066667 4.352 1.450667 9.088 1.450667 13.781334v189.866666c0 7.253333-1.109333 15.274667-3.285333 22.186667-6.144 16.64-20.693333 25.770667-40.661334 25.770667h-242.858666v-274.858667h43.562666v244.693333c3.285333 0.384 5.802667 1.109333 7.978667 1.109334h169.557333c13.44 0 19.968-6.186667 19.968-19.626667v-194.218667c0-1.066667-0.384-2.133333-0.725333-4.352-11.605333-1.450667-23.978667-0.341333-35.584-0.725333-11.946667-0.341333-24.32 0-36.266667 0h-109.653333v-26.88c2.133333-0.341333 4.352-1.066667 6.869333-1.066667h189.866667z m460.714667 85.333334v136.490666c0 2.901333-0.384 5.802667 0 8.704a17.365333 17.365333 0 0 0 17.066666 15.957334c3.242667 0.384 6.528 0 9.813334 0h203.264v28.714666h-11.946667c-73.728 0-147.413333-0.384-220.757333 0.341334-20.693333 0.384-40.661333-14.506667-40.277334-39.936 0.341333-35.925333 0-72.234667 0-108.202667v-13.056l-19.626666-1.066667v-27.605333c20.693333-0.384 41.045333-0.384 62.464-0.384z m-1632.938667 23.936c-13.056 19.626667-16 41.770667-13.781333 64.64 1.792 17.408 6.869333 33.365333 18.133333 47.189333 23.253333 28.288 67.541333 28.672 90.752 0.341333 14.165333-17.066667 19.626667-37.034667 18.901333-59.904 0-21.418667-3.285333-35.584-11.989333-50.090666-23.594667-39.210667-76.970667-40.277333-102.016-2.133334z m1653.248-108.544c65.706667 0.341333 130.688 0.341333 196.778667 0.341333 0 9.472 0.341333 18.901333-0.384 27.989333-0.341333 2.901333-3.626667 5.802667-6.528 7.594667-11.946667 7.637333-24.32 14.933333-36.693334 22.186667a22.528 22.528 0 0 0-8.661333 7.978666h34.816c6.912 0 13.098667 1.792 18.517333 6.528 5.802667 5.418667 8.021333 11.946667 8.021334 19.2 0 35.242667 0.341333 70.826667 0 106.026667-0.384 21.76-14.933333 35.242667-36.309334 35.242667h-25.045333c-2.56-9.472-5.12-18.176-8.021333-28.714667h13.44c13.44-0.341333 16.341333-3.626667 14.506666-18.517333h-42.069333c0 5.461333 0.341333 10.197333 0 15.274666-0.384 5.077333-0.725333 10.154667-1.834667 14.890667-2.901333 9.813333-9.429333 15.957333-19.968 16.682667-5.12 0.384-9.813333 0-15.957333 0v-46.08c-8.021333-2.944-14.933333-1.493333-22.186667-1.493334-6.869333-0.341333-13.397333 0-21.376 0-0.384 5.845333-0.725333 10.922667-0.725333 16-0.384 25.045333-11.264 34.133333-37.418667 30.848v-165.162666c8.704-2.56 17.450667-0.725333 26.154667-1.109334 8.362667-0.341333 17.066667 0 26.496 0-4.693333-4.352-7.978667-7.637333-12.373333-11.605333 5.12-6.912 9.813333-13.098667 15.274666-20.352 6.528 3.285333 13.056 6.528 18.858667 9.813333 6.186667 3.626667 12.373333 7.253333 19.242667 11.605334 13.824-8.32 27.989333-17.066667 42.112-25.386667-0.341333-0.725333-0.341333-1.450667-0.725334-2.56h-137.941333v-27.221333z m-511.146667 54.826666v27.946667c-20.693333 0.341333-41.386667 0-62.805333 0.341333v33.408h63.146667v28.672h-62.762667v45.056h28.288c-6.144-9.813333-14.890667-16.341333-20.693333-24.746666 5.802667-5.76 11.264-10.837333 17.792-17.024 10.538667 7.978667 21.077333 16.341333 31.957333 25.045333-4.010667 5.802667-7.253333 10.538667-11.605333 16.341333 6.528 0.725333 11.605333 1.109333 17.408 1.450667 1.834667 9.088 1.450667 18.133333 0.384 27.605333H3093.333333v-27.605333h58.453334v-45.738667h-57.002667v-28.672h56.618667c1.834667-11.648 1.109333-22.186667 0.725333-33.792h-57.685333v-28.288h165.888z m191.317334 107.434667h-32.298667v41.386667c11.605333-3.242667 22.144-6.528 32.298667-9.045334v-32.341333z m-579.413334-100.181333v112.554666h50.474667c15.616-0.384 21.76-6.570667 22.144-22.186666v-80.213334c0-3.242667-0.384-6.144-0.725333-10.154666a2372.181333 2372.181333 0 0 0-71.893334 0z m982.741334 79.146666h-42.453334v16.341334h42.453334v-16.341334z m81.322666-0.384h-42.112c-0.341333 2.901333-0.341333 5.461333-0.341333 8.021334 0 2.901333 0.341333 5.418667 0.725333 8.32h41.728v-16.341334z m-516.949333-40.277333v32.298667c11.264-0.341333 21.76 1.109333 32.298667-1.066667v-32c-11.605333 0-22.144-0.682667-32.298667 0.768z m516.949333-4.693333h-42.112v15.957333h42.112v-16z m-123.776-0.426667v16.384h42.453334v-16c-13.781333-1.066667-27.946667-0.725333-42.453334-0.341333z m-99.84-89.6c17.066667 12.288 31.189333 27.178667 44.629334 44.629333-9.813333 7.253333-19.626667 14.506667-29.738667 21.76-12.373333-17.066667-24.32-33.408-37.034667-50.474666 7.978667-5.802667 14.890667-10.496 22.144-15.957334z m-2259.2-303.530667c-16.298667 11.605333-32.298667 23.210667-48.981333 35.2-2.56-3.968-4.693333-7.253333-6.912-10.88-14.890667-23.978667-36.266667-38.101333-64.597333-40.277333-36.309333-2.944-63.914667 12.672-80.64 43.946667-22.101333 42.069333-21.376 85.290667 3.669333 126.293333 30.848 50.090667 105.984 51.2 139.392-0.725333 2.901333-4.352 5.461333-9.088 8.704-14.506667 16.725333 11.946667 32.682667 23.594667 48.64 35.2-14.848 37.76-89.301333 70.826667-139.008 66.090667-75.178667-6.912-132.864-69.717333-139.434667-133.632-9.386667-87.850667 46.848-145.578667 104.96-165.162667 68.949333-22.869333 143.018667 9.813333 174.250667 58.453333z m787.072 19.626667c2.176 1.792 5.12 3.584 8.704 6.528v-24.32h56.661334c0.341333 76.586667 0.341333 152.448 0.341333 229.76h-55.893333l-1.109334-21.76-8.704 6.186667c-55.552 44.288-145.578667 23.594667-172.416-53.034667-14.933333-42.837333-11.264-84.565333 15.616-122.325333 36.266667-50.816 109.994667-61.013333 156.8-21.077334zM1533.44 170.666667v126.336c8.362667-6.186667 14.165333-11.264 20.693333-14.890667 25.429333-14.506667 51.925333-17.066667 79.146667-5.802667 18.901333 7.637333 31.232 22.144 38.826667 40.661334 5.845333 14.165333 8.746667 28.672 8.746666 43.946666 0.341333 46.08 0 92.16 0 138.282667 0 1.450667-0.384 2.901333-0.384 5.12h-52.992c0-3.669333-0.341333-6.912-0.341333-10.538667V374.698667c0-11.264 0-22.869333-3.626667-33.749334-5.845333-18.901333-18.517333-29.781333-38.144-30.506666-17.792-0.725333-34.474667 4.693333-44.288 23.936-3.626667 7.253333-5.802667 15.274667-6.528 23.253333-1.109333 11.605333-0.725333 23.594667-0.725333 35.2v111.786667h-58.453333V170.666667h58.069333z m463.232 111.786666c13.824 8.746667 23.637333 21.461333 28.330667 36.693334 4.010667 12.373333 7.253333 25.770667 7.637333 38.485333 0.725333 46.464 0.341333 92.928 0.341333 139.392 0 2.176-0.341333 4.352-0.341333 6.912h-53.376c0-3.626667-0.341333-7.253333-0.341333-11.264V363.093333c0-10.197333-1.834667-19.968-5.845334-29.056-6.869333-15.616-19.2-23.978667-35.925333-24.32-22.144-0.384-41.002667 9.813333-48.298667 33.024a68.949333 68.949333 0 0 0-3.242666 21.077334c-0.384 42.453333 0 84.906667 0 127.402666-0.725333 4.010667-0.725333 7.978667-0.725334 13.056h-56.661333c-0.981333-3.370667-1.706667-50.944-1.92-102.144l-0.085333-22.058666v-21.76c0-42.794667 0.426667-79.786667 1.28-85.290667h49.066666c1.066667 7.68 1.792 14.933333 2.858667 22.528 1.450667 0 2.176 0.341333 2.56 0 15.957333-16.682667 35.925333-23.594667 58.453333-25.429333 20.309333-1.792 39.210667 1.109333 56.234667 12.373333z m139.434667 55.210667c-13.098667 13.781333-18.176 30.848-18.176 49.749333-0.341333 11.946667 1.450667 23.594667 6.528 34.474667 10.197333 22.528 26.88 36.693333 51.925333 39.210667 26.88 2.56 49.749333-5.12 64.981333-28.672 12.373333-19.242667 14.506667-41.045333 9.813334-62.805334-5.461333-25.045333-19.626667-43.562667-45.397334-50.474666-26.453333-6.912-50.432-2.56-69.674666 18.517333z" fill="#000000" /><path d="M1724.714667 273.066667h53.76v230.485333h-53.76V273.066667z m53.376 572.501333h-52.992v-230.186667h52.266666c2.176 7.978667 2.901333 209.834667 0.725334 230.186667z m5.461333-627.712c0 17.450667-13.44 30.506667-31.573333 30.506667a31.018667 31.018667 0 0 1-32.341334-31.232c0-17.408 13.44-30.506667 31.573334-30.506667 18.901333 0 32.341333 13.098667 32.341333 31.232z m-31.573333 372.48c-19.626667 1.450667-32.341333-15.232-32.341334-29.781333 0.384-17.792 13.098667-31.189333 31.232-31.573334a31.317333 31.317333 0 0 1 32.682667 31.232c0.341333 17.408-12.714667 29.738667-31.573333 30.122667z" fill="#DA241E" /></svg>