<?xml version="1.0" standalone="no"?><!DOCTYPE svg PUBLIC "-//W3C//DTD SVG 1.1//EN" "http://www.w3.org/Graphics/SVG/1.1/DTD/svg11.dtd"><svg class="icon" width="200px" height="50.10px" viewBox="0 0 4088 1024" version="1.1" xmlns="http://www.w3.org/2000/svg"><path d="M3806.05265 535.197536h-64.169093a1421.667217 1421.667217 0 0 1-7.119063-30.134118 753.157903 753.157903 0 0 1-7.119064-25.50185c6.338892 0 15.79847 0.780171 28.525015 2.291753h16.627401c15.79847 0 23.746465-8.484363 23.746465-25.50185v-9.264535h-76.017944v83.478333h-68.850121V447.086936h-73.628669v83.478333h-71.288156V233.758836h106.883473a208.208225 208.208225 0 0 1-26.13574-16.237315c-15.84723-10.776117-27.696082-17.748898-35.595317-20.869584l30.865528-32.474632h-80.747733V106.200823h363.3648v62.60875l-116.343051 64.949263h118.732325v236.489437c0 41.739166-20.577019 63.437682-61.731056 64.949263zM3578.047577 398.374988h73.628669v-34.766385h-73.628669v34.766385z m0-115.904204v34.766385h73.628669v-34.766385h-73.628669z m189.97172-118.293479h-166.225255c9.459577 4.632267 23.746465 12.38522 42.71438 23.210098 15.84723 9.264535 28.525014 16.237316 38.033353 20.869583l85.477522-44.079681z m28.525014 118.293479h-76.017944v34.766385h76.017944v-34.766385z m0 81.137819h-76.017944v34.766385h76.017944v-34.766385z m-446.501807-238.82995l61.731057-39.447413c4.729789 4.681028 11.068681 12.433981 19.016676 23.210097a1345.307947 1345.307947 0 0 1 59.341782 78.846066l-66.460845 41.739166a1100.919276 1100.919276 0 0 0-73.62867-104.347916z m-9.508338 227.224902V280.13027h121.1216v224.933148c23.746465 30.914289 64.120332 46.371434 121.121599 46.371434 80.747733 1.560343 186.802274 1.560343 318.261145 0-11.117442 24.721679-20.62578 47.151605-28.525015 67.241017-110.83309-1.560343-154.376403-2.340514-130.629938-2.340514H3580.388091c-66.509606 0-116.34305-17.017487-149.597854-51.003701-14.286888 12.38522-34.083735 33.986214-59.390543 64.949264l-33.254803-81.18658c7.899235-7.704192 23.746465-20.040651 47.49293-37.106899-17.456334 10.873638-15.067059 8.533124 7.119063-6.924021V352.003555h-52.222718z m-92.645346 273.645096c-57.001268-43.299509-96.594964-103.567745-118.732326-180.902229-15.84723 75.774141-54.660754 136.822548-116.391811 183.193982a1063.227248 1063.227248 0 0 0-54.611993-62.60875c61.731057-35.546556 101.275992-91.182525 118.732325-166.956666h-102.104924V333.474485h109.223987v-13.945562c1.560343-23.161337 2.389275-44.03092 2.389275-62.60875h-97.375135V192.01967h54.611994a394.620414 394.620414 0 0 1-14.238127-23.210097c-14.238127-24.672918-25.355568-42.470577-33.254803-53.295455l57.001268-30.182878c19.016676 23.210097 37.984592 50.27229 57.001268 81.186579l-54.611993 25.501851h75.969183c22.186122-35.546556 41.154038-71.873284 57.001269-108.980183l73.628669 30.134117c-18.967916 27.842365-35.595317 54.124386-49.833444 78.846066h56.952508v64.900503h-111.613262v76.554312h130.629938V398.374988h-116.391811c22.186122 72.702216 62.559989 125.217499 121.170361 157.692132-15.84723 18.529069-30.914289 41.739166-45.152416 69.581531z m-294.51468-164.664913c9.508338-3.071925 20.577019-5.363678 33.254803-6.924021-1.560343 10.824877-3.169446 27.062193-4.729788 48.663187a180.170818 180.170818 0 0 0-2.389275 23.210098c-7.947995 0-16.627402 1.560343-26.13574 4.632267v95.083382h-68.85012v-83.478333c-6.338892 1.560343-15.84723 3.120685-28.525015 4.632267-20.577019 4.632267-58.561611 10.824877-114.002536 18.529069l-14.238127-71.873284c11.068681 0 21.35719-1.511582 30.865529-4.632267V182.755135h-23.746465V115.514118h242.243199v67.241017h-23.746465v278.228603z m-68.85012-278.228603h-59.390543v55.635969h59.390543V182.755135z m0 115.904204h-59.390543v57.976483h59.390543V298.659339z m0 118.293479h-59.390543v64.900503a276.960824 276.960824 0 0 1 30.865528-4.632267c12.677784-3.071925 22.186122-4.632267 28.525015-4.632267V416.952818z m-306.412292 185.485735h-351.467187v20.869584h-80.747733V108.541337h513.011414v512.475046H2578.111728v-18.57783z m0-426.656199h-351.467187v364.04745h351.467187V175.782354z m-220.837249 199.431298h-102.153684V310.264388h102.153684v-37.106899h-111.662022V208.256986h308.752806v64.900503h-121.1216v37.106899h114.002536v64.949264h-42.763141c15.84723 13.896802 31.694461 28.622536 47.541691 44.03092l-30.914289 25.50185h40.373866v64.949264h-320.601658V444.746422h116.391811V375.213652z m75.969184 69.53277H2487.904417a438.602573 438.602573 0 0 1-23.795226-25.50185l-16.627401-16.237316 33.254803-27.793604h-47.49293v69.53277z m-470.248273 9.313295h-125.900149v173.880687H1751.617719V454.059717h-128.240663v39.398653h-83.137008V182.755135H1751.617719V85.33124h85.477522v97.423895h211.426432v310.703235h-85.526283v-39.398653zM1751.617719 259.260687h-128.240663v118.244718h128.240663V259.260687z m211.377671 0h-125.900149v118.244718h125.900149V259.260687zM4024.305581 1009.395426v-162.958287c0-13.262913 1.3653-33.157282 4.095899-59.634347h-1.3653a248.43581 248.43581 0 0 1-16.286076 47.687973l-69.191446 174.904661h-32.572153l-70.605506-174.904661a532.466937 532.466937 0 0 1-14.920777-47.687973h-1.365299c1.804146 20.333215 2.7306 40.178824 2.730599 59.634347v162.958287h-42.080491v-274.278985h55.635968l76.017945 185.485735c0.877693 4.437224 3.608292 11.946374 8.143038 22.527447a37.789549 37.789549 0 0 0 2.7306 9.313296c4.485985-12.38522 8.581885-22.966294 12.190177-31.840743l74.652645-185.485735H4067.751372v274.278985h-43.445791z m-402.422127 3.998378c-88.695729-4.437224-134.823359-51.247505-138.431652-140.479601 4.534746-90.938721 51.58883-138.675455 141.162251-143.112679 85.965129 5.314917 132.092759 52.564044 138.431652 141.79614-2.7306 91.865175-49.784683 139.114301-141.162251 141.79614z m92.304021-140.479601c-4.534746-63.583964-34.863907-98.057785-90.938722-103.323941-57.927722 4.388464-88.695729 38.862285-92.304021 103.323941 2.7306 64.510417 32.572153 98.935478 89.573422 103.372702 60.609561-2.681839 91.816414-37.106899 93.669321-103.372702z m-365.802835 102.056163c42.519338 0.877693 68.752599-20.772062 78.748544-64.949264l50.174769 11.946374c-16.286077 61.828578-58.805414 92.25526-127.558013 91.426328-85.965129-1.804146-129.849767-48.565666-131.653913-140.479601 1.804146-92.742868 47.054084-140.43084 135.749812-143.112679 56.074815 0.926453 95.424707 27.842365 118.049675 80.845255l-48.85823 13.262912c-12.677784-33.596128-36.619292-51.247505-71.922045-53.00289-53.392976 2.633078-81.430383 36.668053-84.160982 102.007402 0.926453 66.265803 28.037407 100.252017 81.430383 102.056163z m-202.893308-239.853925h46.12763v274.278985h-46.12763v-274.278985z m-204.307369 102.007402c-9.947185-16.724923-18.529069-32.669675-25.794415-47.687973h-1.316539c2.681839 15.895991 4.047139 34.034975 4.047139 54.31943v165.640126h-44.76233v-274.278985h47.49293a9348.988159 9348.988159 0 0 1 116.684375 170.955044c9.947185 14.140605 19.016676 30.475443 27.159715 49.004512v-1.316539a484.827724 484.827724 0 0 1-2.7306-49.053273v-169.589744h44.811091v274.278985h-46.12763a20405.186243 20405.186243 0 0 1-119.463736-172.271583z m-219.179384 176.269961c-77.822091 2.633078-115.855443-37.106899-114.002537-119.268693v-159.00867h46.12763v159.00867c-0.926453 55.635968 21.698515 82.60064 67.874907 80.845255 49.735923 1.755386 73.726191-25.209286 71.922045-80.845255v-159.00867h46.12763v159.00867c2.7306 83.039487-36.619292 122.779464-118.049675 119.268693z m-400.471699-70.264181h-126.241474l-28.476254 66.265803h-48.85823l118.049675-275.595524h44.811091l118.049675 275.595524h-50.223529l-27.110954-66.265803z m-54.319429-136.481223c-4.534746-11.458766-6.777738-20.284455-6.777739-26.477064h-1.3653a85.916368 85.916368 0 0 1-8.143038 26.477064l-39.349892 96.741246h93.669321l-38.033352-96.741246z m-319.626445 30.475443c-9.947185-16.724923-18.57783-32.669675-25.794414-47.687973h-1.3653c2.7306 15.895991 4.0959 34.034975 4.095899 54.31943v165.640126h-44.811091v-274.278985h47.49293a9161.015628 9161.015628 0 0 1 116.733136 170.955044c9.947185 14.140605 19.016676 30.475443 27.159715 49.004512v-1.316539a471.028444 471.028444 0 0 1-2.7306-49.053273v-169.589744h44.811091v274.278985h-46.176391a21337.686032 21337.686032 0 0 1-119.414975-172.271583z m-151.353239-102.007402h46.127631v274.278985h-46.127631v-274.278985z m-84.843632 152.377214h-137.066352v121.901771h-46.176391v-274.278985h46.176391v112.637237h137.066352v-112.637237h47.49293v274.278985h-47.49293v-121.901771z m-330.500083 87.476711c42.519338 0.877693 68.752599-20.772062 78.699784-64.949264l50.22353 11.946374c-16.286077 61.828578-58.805414 92.25526-127.558014 91.426328-85.965129-1.804146-129.849767-48.565666-131.653913-140.479601 1.804146-92.742868 47.005323-140.43084 135.701052-143.112679 56.123575 0.926453 95.473467 27.842365 118.098436 80.845255l-48.85823 13.262912c-12.677784-33.596128-36.668053-51.247505-71.922045-53.00289-53.441736 2.633078-81.430383 36.668053-84.160983 102.007402 0.877693 66.265803 28.037407 100.252017 81.430383 102.056163zM1124.798811 666.266321c-110.735569 8.386842-189.776677-100.788384-189.776677-100.788385l-51.783872 50.418573-68.996403-83.96594 51.735112-50.369812-51.735112-50.369812 68.996403-67.143495 51.783872 50.369811c89.134575-107.712405 172.515387-100.739624 172.515387-100.739623 175.392268 4.193421 172.515387 167.883119 172.515386 167.883119-5.753764 187.484924-155.254096 184.705564-155.254096 184.705564z m0-251.84906c-63.2914-2.828121-103.518984 67.143496-103.518984 67.143496 47.444169 81.137819 103.518984 67.143496 103.518984 67.143496 48.85823-4.193421 51.735112-67.143496 51.735112-67.143496-1.414061-58.756654-51.735112-67.143496-51.735112-67.143496zM725.692413 481.804561l223.03148 235.4167c68.606317 43.689595 34.327539 134.530795 34.327539 134.530795-41.202799 73.969995-99.81317 100.837145-99.81317 100.837145-63.437682 43.738356-123.21831 0-123.218311 0l-102.933855-84.063462-102.982617 84.063462c-54.855797 37.009378-85.770086 16.822444-85.770086 16.822444-106.347105-30.231639-137.261394-134.530795-137.261394-134.530794-23.990269-73.969995 34.327539-117.65959 34.327539-117.65959l223.03148-235.4167-223.03148-218.545496C286.504711 185.875821 331.071999 128.72827 331.071999 128.72827 361.986288 61.487253 417.427214 27.842365 417.427214 27.842365c87.915557-50.467333 153.840035 0 153.840035 0l85.818847 84.063461L760.019951 27.842365c66.948453-50.467333 102.933856-16.822444 102.933856-16.822445 71.141874 27.305997 102.933856 84.063461 102.933856 84.063462 55.392165 81.137819 3.608292 151.353239 3.608292 151.353239l-243.803542 235.36794zM449.706803 784.462278s-34.327539 27.305997 0 67.289778c0 0 25.696893 37.789549 68.557556 0l68.606317-67.289778-51.442548-50.418572 68.606317-67.289778 51.442547 50.467333 51.442548-50.467333 68.606317 67.289778-51.442548 50.418572 68.606317 67.289778s38.56972 35.692839 85.721326 0c0 0 23.600183-46.273912-34.278779-84.112222L655.476992 582.690466 449.706803 784.462278zM883.238262 128.72827c-47.444169-35.741599-86.257693 0-86.257694 0l-68.996402 67.241017 51.735112 50.467334-68.996403 67.241017-51.735112-50.418573-51.783872 50.418573-68.996403-67.241017 51.735112-50.467334-68.996402-67.241017c-43.153227-37.83831-68.996403 0-68.996403 0-34.522582 39.93502 0 67.241017 0 67.241017l207.037968 201.771812 189.776678-184.949367c58.220286-37.83831 34.473821-84.063461 34.473821-84.063462zM417.427214 364.09621l68.996402 67.289778-51.735112 50.418573 51.735112 50.467333-68.996402 84.063461-51.783873-50.418572s-79.041108 109.272748-189.776677 100.837145c0 0-149.500332 2.828121-155.254096-184.949367 0 0-2.876882-163.933502 172.515387-168.126923 0 0 83.380812-7.021542 172.515386 100.885906l51.783873-50.467334zM175.866664 414.563544s-50.321051 8.386842-51.735112 67.241017c0 0 2.876882 63.047596 51.735112 67.241017 0 0 56.074815 14.043084 103.518984-67.241017 0 0-40.227584-70.069138-103.518984-67.241017z" fill="#0254A4" /></svg>